<?xml version="1.0" encoding="utf-8"?>
<!-- Generator: Adobe Illustrator 22.0.0, SVG Export Plug-In . SVG Version: 6.00 Build 0)  -->
<svg version="1.1" id="Layer_2_1_" xmlns="http://www.w3.org/2000/svg" xmlns:xlink="http://www.w3.org/1999/xlink" x="0px" y="0px"
	 viewBox="0 0 480 270" style="enable-background:new 0 0 480 270;" xml:space="preserve">
<style type="text/css">
	.st0{clip-path:url(#SVGID_2_);}
	.st1{fill:none;stroke:#000000;stroke-width:0.2835;stroke-miterlimit:10;}
	.st2{fill:none;stroke:#1D1D1B;stroke-width:0.25;stroke-miterlimit:10;}
	.st3{fill:none;stroke:#1D1D1B;stroke-miterlimit:10;}
</style>
<title>Scale Charts</title>
<g>
	<g>
		<defs>
			<rect id="SVGID_1_" y="124.1" width="455.9" height="35.7"/>
		</defs>
		<clipPath id="SVGID_2_">
			<use xlink:href="#SVGID_1_"  style="overflow:visible;"/>
		</clipPath>
		<g class="st0">
			<line class="st1" x1="5.6" y1="110.8" x2="-47" y2="163.4"/>
			<line class="st1" x1="10.9" y1="110.8" x2="-41.7" y2="163.4"/>
			<line class="st1" x1="16.2" y1="110.8" x2="-36.4" y2="163.4"/>
			<line class="st1" x1="21.5" y1="110.8" x2="-31.1" y2="163.4"/>
			<line class="st1" x1="26.8" y1="110.8" x2="-25.8" y2="163.4"/>
			<line class="st1" x1="32.1" y1="110.8" x2="-20.5" y2="163.4"/>
			<line class="st1" x1="37.4" y1="110.8" x2="-15.2" y2="163.4"/>
			<line class="st1" x1="42.7" y1="110.8" x2="-9.9" y2="163.4"/>
			<line class="st1" x1="48" y1="110.8" x2="-4.6" y2="163.4"/>
			<line class="st1" x1="53.3" y1="110.8" x2="0.7" y2="163.4"/>
			<line class="st1" x1="58.6" y1="110.8" x2="6" y2="163.4"/>
			<line class="st1" x1="63.9" y1="110.8" x2="11.3" y2="163.4"/>
			<line class="st1" x1="69.2" y1="110.8" x2="16.6" y2="163.4"/>
			<line class="st1" x1="74.5" y1="110.8" x2="21.9" y2="163.4"/>
			<line class="st1" x1="79.8" y1="110.8" x2="27.2" y2="163.4"/>
			<line class="st1" x1="85.1" y1="110.8" x2="32.5" y2="163.4"/>
			<line class="st1" x1="90.4" y1="110.8" x2="37.8" y2="163.4"/>
			<line class="st1" x1="95.7" y1="110.8" x2="43.1" y2="163.4"/>
			<line class="st1" x1="101" y1="110.8" x2="48.4" y2="163.4"/>
			<line class="st1" x1="106.3" y1="110.8" x2="53.7" y2="163.4"/>
			<line class="st1" x1="111.6" y1="110.8" x2="59" y2="163.4"/>
			<line class="st1" x1="116.9" y1="110.8" x2="64.3" y2="163.4"/>
			<line class="st1" x1="122.2" y1="110.8" x2="69.6" y2="163.4"/>
			<line class="st1" x1="127.5" y1="110.8" x2="74.9" y2="163.4"/>
			<line class="st1" x1="132.8" y1="110.8" x2="80.2" y2="163.4"/>
			<line class="st1" x1="138.1" y1="110.8" x2="85.5" y2="163.4"/>
			<line class="st1" x1="143.4" y1="110.8" x2="90.8" y2="163.4"/>
			<line class="st1" x1="148.7" y1="110.8" x2="96.1" y2="163.4"/>
			<line class="st1" x1="154" y1="110.8" x2="101.4" y2="163.4"/>
			<line class="st1" x1="159.3" y1="110.8" x2="106.7" y2="163.4"/>
			<line class="st1" x1="164.6" y1="110.8" x2="112" y2="163.4"/>
			<line class="st1" x1="169.9" y1="110.8" x2="117.3" y2="163.4"/>
			<line class="st1" x1="175.2" y1="110.8" x2="122.6" y2="163.4"/>
			<line class="st1" x1="180.5" y1="110.8" x2="127.9" y2="163.4"/>
			<line class="st1" x1="185.8" y1="110.8" x2="133.2" y2="163.4"/>
			<line class="st1" x1="191.1" y1="110.8" x2="138.4" y2="163.4"/>
			<line class="st1" x1="196.4" y1="110.8" x2="143.7" y2="163.4"/>
			<line class="st1" x1="201.7" y1="110.8" x2="149" y2="163.4"/>
			<line class="st1" x1="207" y1="110.8" x2="154.3" y2="163.4"/>
			<line class="st1" x1="212.3" y1="110.8" x2="159.6" y2="163.4"/>
			<line class="st1" x1="217.6" y1="110.8" x2="164.9" y2="163.4"/>
			<line class="st1" x1="222.9" y1="110.8" x2="170.2" y2="163.4"/>
			<line class="st1" x1="228.2" y1="110.8" x2="175.5" y2="163.4"/>
			<line class="st1" x1="233.5" y1="110.8" x2="180.8" y2="163.4"/>
			<line class="st1" x1="238.8" y1="110.8" x2="186.1" y2="163.4"/>
			<line class="st1" x1="244.1" y1="110.8" x2="191.4" y2="163.4"/>
			<line class="st1" x1="249.4" y1="110.8" x2="196.7" y2="163.4"/>
			<line class="st1" x1="254.7" y1="110.8" x2="202" y2="163.4"/>
			<line class="st1" x1="260" y1="110.8" x2="207.3" y2="163.4"/>
			<line class="st1" x1="265.3" y1="110.8" x2="212.6" y2="163.4"/>
			<line class="st1" x1="270.6" y1="110.8" x2="217.9" y2="163.4"/>
			<line class="st1" x1="275.9" y1="110.8" x2="223.2" y2="163.4"/>
			<line class="st1" x1="281.2" y1="110.8" x2="228.5" y2="163.4"/>
			<line class="st1" x1="286.5" y1="110.8" x2="233.8" y2="163.4"/>
			<line class="st1" x1="291.8" y1="110.8" x2="239.1" y2="163.4"/>
			<line class="st1" x1="297.1" y1="110.8" x2="244.4" y2="163.4"/>
			<line class="st1" x1="302.4" y1="110.8" x2="249.7" y2="163.4"/>
			<line class="st1" x1="307.7" y1="110.8" x2="255" y2="163.4"/>
			<line class="st1" x1="313" y1="110.8" x2="260.3" y2="163.4"/>
			<line class="st1" x1="318.3" y1="110.8" x2="265.6" y2="163.4"/>
			<line class="st1" x1="323.6" y1="110.8" x2="270.9" y2="163.4"/>
			<line class="st1" x1="328.9" y1="110.8" x2="276.2" y2="163.4"/>
			<line class="st1" x1="334.2" y1="110.8" x2="281.5" y2="163.4"/>
			<line class="st1" x1="339.5" y1="110.8" x2="286.8" y2="163.4"/>
			<line class="st1" x1="344.8" y1="110.8" x2="292.1" y2="163.4"/>
			<line class="st1" x1="350.1" y1="110.8" x2="297.4" y2="163.4"/>
			<line class="st1" x1="355.4" y1="110.8" x2="302.7" y2="163.4"/>
			<line class="st1" x1="360.7" y1="110.8" x2="308" y2="163.4"/>
			<line class="st1" x1="366" y1="110.8" x2="313.3" y2="163.4"/>
			<line class="st1" x1="371.3" y1="110.8" x2="318.6" y2="163.4"/>
			<line class="st1" x1="376.6" y1="110.8" x2="323.9" y2="163.4"/>
			<line class="st1" x1="381.9" y1="110.8" x2="329.2" y2="163.4"/>
			<line class="st1" x1="387.2" y1="110.8" x2="334.5" y2="163.4"/>
			<line class="st1" x1="392.5" y1="110.8" x2="339.8" y2="163.4"/>
			<line class="st1" x1="397.8" y1="110.8" x2="345.1" y2="163.4"/>
			<line class="st1" x1="403.1" y1="110.8" x2="350.4" y2="163.4"/>
			<line class="st1" x1="408.4" y1="110.8" x2="355.7" y2="163.4"/>
			<line class="st1" x1="413.7" y1="110.8" x2="361" y2="163.4"/>
			<line class="st1" x1="419" y1="110.8" x2="366.3" y2="163.4"/>
			<line class="st1" x1="424.3" y1="110.8" x2="371.6" y2="163.4"/>
			<line class="st1" x1="429.6" y1="110.8" x2="376.9" y2="163.4"/>
			<line class="st1" x1="434.9" y1="110.8" x2="382.2" y2="163.4"/>
			<line class="st1" x1="440.2" y1="110.8" x2="387.5" y2="163.4"/>
			<line class="st1" x1="445.5" y1="110.8" x2="392.8" y2="163.4"/>
			<line class="st1" x1="450.8" y1="110.8" x2="398.1" y2="163.4"/>
			<line class="st1" x1="456.1" y1="110.8" x2="403.4" y2="163.4"/>
			<line class="st1" x1="461.4" y1="110.8" x2="408.7" y2="163.4"/>
			<line class="st1" x1="466.7" y1="110.8" x2="414" y2="163.4"/>
			<line class="st1" x1="472" y1="110.8" x2="419.3" y2="163.4"/>
			<line class="st1" x1="477.3" y1="110.8" x2="424.6" y2="163.4"/>
			<line class="st1" x1="482.6" y1="110.8" x2="429.9" y2="163.4"/>
			<line class="st1" x1="487.9" y1="110.8" x2="435.2" y2="163.4"/>
			<line class="st1" x1="493.2" y1="110.8" x2="440.5" y2="163.4"/>
			<line class="st1" x1="498.5" y1="110.8" x2="445.8" y2="163.4"/>
			<line class="st1" x1="503.8" y1="110.8" x2="451.1" y2="163.4"/>
			<line class="st1" x1="509.1" y1="110.8" x2="456.4" y2="163.4"/>
			<line class="st1" x1="514.4" y1="110.8" x2="461.7" y2="163.4"/>
			<line class="st1" x1="519.7" y1="110.8" x2="467" y2="163.4"/>
			<line class="st1" x1="525" y1="110.8" x2="472.3" y2="163.4"/>
			<line class="st1" x1="530.3" y1="110.8" x2="477.6" y2="163.4"/>
		</g>
	</g>
</g>
<line class="st2" x1="392.8" y1="205.6" x2="392.8" y2="15.5"/>
<line class="st3" x1="77.4" y1="15.5" x2="77.4" y2="205.6"/>
<path d="M57.5,179.9v12.8h-2.4v-10.3l-2.8,1.7l-1.1-1.6l4.2-2.6L57.5,179.9z"/>
<path d="M68.2,181.4c1.6,3.1,1.6,6.8,0,9.9c-1.4,1.9-4,2.3-5.9,0.9c-0.3-0.3-0.6-0.6-0.9-0.9c-1.6-3.1-1.6-6.8,0-9.9
	c1.4-1.9,4.1-2.3,6-0.9C67.6,180.8,67.9,181.1,68.2,181.4z M63.2,182.6c-0.4,1.2-0.6,2.4-0.5,3.7c-0.1,1.3,0.1,2.5,0.5,3.7
	c0.3,0.9,1.3,1.3,2.2,1c0.5-0.2,0.8-0.5,1-1c0.4-1.2,0.6-2.5,0.5-3.7c0.1-1.3-0.1-2.5-0.5-3.7c-0.3-0.9-1.3-1.3-2.2-1
	C63.7,181.8,63.3,182.2,63.2,182.6L63.2,182.6z"/>
<path d="M56.3,142.4c1.2,0.6,2,1.8,1.9,3.1c0,0.7-0.2,1.4-0.5,2.1c-0.4,0.8-0.9,1.6-1.5,2.2c-0.7,0.8-1.8,1.8-3.2,3.2h5.5l-0.3,1.9
	h-8v-1.8c1.6-1.6,2.8-2.9,3.5-3.7c0.6-0.6,1.1-1.3,1.5-2c0.3-0.5,0.4-1.1,0.5-1.8c0.1-0.9-0.6-1.8-1.6-1.9c-0.1,0-0.2,0-0.3,0
	c-0.5,0-0.9,0.1-1.3,0.3c-0.4,0.3-0.8,0.6-1.2,1l-1.3-1c1-1.3,2.5-2.1,4.1-2.1C54.9,141.9,55.7,142.1,56.3,142.4z"/>
<path d="M68.2,143.6c1.6,3.1,1.6,6.8,0,9.9c-1.4,1.9-4,2.3-5.9,0.9c-0.3-0.3-0.6-0.6-0.9-0.9c-1.6-3.1-1.6-6.8,0-9.9
	c1.4-1.9,4.1-2.3,6-0.9C67.6,143,67.9,143.3,68.2,143.6z M63.2,144.9c-0.4,1.2-0.6,2.4-0.5,3.7c-0.1,1.3,0.1,2.5,0.5,3.7
	c0.3,0.9,1.3,1.3,2.2,1c0.5-0.2,0.8-0.5,1-1c0.4-1.2,0.6-2.5,0.5-3.7c0.1-1.3-0.1-2.5-0.5-3.7c-0.3-0.9-1.3-1.3-2.2-1
	C63.7,144.1,63.3,144.4,63.2,144.9L63.2,144.9z"/>
<path d="M56.2,104.6c0.6,0.3,1.1,0.7,1.4,1.2c0.3,0.5,0.5,1.1,0.5,1.6c0,0.7-0.2,1.4-0.7,1.9s-1.1,0.9-1.8,1.1
	c0.8,0,1.5,0.4,2.1,0.9c0.6,0.6,0.9,1.4,0.8,2.2c0,0.7-0.2,1.4-0.6,2c-0.4,0.6-1,1.1-1.6,1.4c-0.8,0.4-1.6,0.5-2.5,0.5
	c-1.6,0.1-3.1-0.6-4.1-1.8l1.3-1.3c0.4,0.4,0.8,0.7,1.3,0.9c0.4,0.2,0.9,0.3,1.4,0.3c0.6,0,1.2-0.2,1.6-0.6c0.4-0.4,0.7-1,0.6-1.6
	c0.1-0.6-0.2-1.2-0.6-1.6c-0.5-0.3-1.1-0.5-1.7-0.5h-1l0.3-1.7h0.7c0.5,0,1.1-0.2,1.5-0.5c0.4-0.4,0.6-0.9,0.6-1.4s-0.2-0.9-0.5-1.2
	c-0.4-0.3-0.9-0.5-1.4-0.4c-0.5,0-0.9,0.1-1.3,0.3c-0.4,0.2-0.9,0.5-1.2,0.8l-1.3-1.3c1.1-1.1,2.5-1.6,4-1.6
	C54.8,104.1,55.5,104.3,56.2,104.6z"/>
<path d="M68.2,105.9c1.6,3.1,1.6,6.8,0,9.9c-1.4,1.9-4,2.3-5.9,0.9c-0.3-0.3-0.6-0.6-0.9-0.9c-1.6-3.1-1.6-6.8,0-9.9
	c1.4-1.9,4.1-2.3,6-0.9C67.6,105.3,67.9,105.5,68.2,105.9z M63.2,107.1c-0.4,1.2-0.6,2.4-0.5,3.7c-0.1,1.3,0.1,2.5,0.5,3.7
	c0.3,0.9,1.3,1.3,2.2,1c0.5-0.2,0.8-0.5,1-1c0.4-1.2,0.6-2.5,0.5-3.7c0.1-1.3-0.1-2.5-0.5-3.7c-0.3-0.9-1.3-1.3-2.2-1
	C63.7,106.3,63.3,106.6,63.2,107.1L63.2,107.1z"/>
<path d="M58.8,74.6v1.9h-1.5v2.9h-2.4v-2.9h-5.4v-1.7l3.7-8.4l2.1,0.8L52,74.6h2.9l0.2-3.2h2.1v3.2H58.8z"/>
<path d="M68.2,68.1c0.9,1.5,1.3,3.2,1.2,4.9c0.1,1.7-0.3,3.5-1.2,5c-1.4,1.9-4,2.3-5.9,0.9c-0.3-0.3-0.6-0.6-0.9-0.9
	c-0.9-1.5-1.3-3.3-1.2-5c-0.1-1.7,0.3-3.4,1.2-4.9c1.4-1.9,4.1-2.3,6-0.9C67.6,67.5,67.9,67.8,68.2,68.1z M63.2,69.3
	c-0.4,1.2-0.6,2.4-0.5,3.7c-0.1,1.3,0.1,2.5,0.5,3.7c0.3,0.9,1.3,1.3,2.2,1c0.5-0.2,0.8-0.5,1-1c0.4-1.2,0.6-2.5,0.5-3.7
	c0.1-1.3-0.1-2.5-0.5-3.7c-0.3-0.9-1.3-1.3-2.2-1C63.7,68.5,63.4,68.8,63.2,69.3L63.2,69.3z"/>
<path d="M57.8,30.6H53v3.2c0.6-0.3,1.3-0.5,1.9-0.5c0.7,0,1.3,0.2,1.9,0.5c0.6,0.3,1,0.8,1.3,1.4c0.3,0.7,0.5,1.4,0.5,2.2
	S58.4,39,58,39.7c-0.4,0.7-1,1.2-1.7,1.6c-0.8,0.4-1.6,0.6-2.5,0.6c-0.8,0-1.5-0.1-2.2-0.5c-0.7-0.3-1.3-0.8-1.8-1.3l1.4-1.3
	c0.6,0.8,1.6,1.2,2.6,1.2c0.6,0,1.3-0.2,1.7-0.7s0.7-1.2,0.6-1.9c0-1.6-0.7-2.4-2-2.4c-0.3,0-0.6,0-0.8,0.1
	c-0.3,0.1-0.6,0.2-0.8,0.3h-1.7v-6.7h7.4L57.8,30.6z"/>
<path d="M68.2,30.3c0.9,1.5,1.3,3.2,1.2,4.9c0.1,1.7-0.3,3.5-1.2,5c-1.4,1.9-4,2.3-5.9,0.9c-0.3-0.3-0.6-0.6-0.9-0.9
	c-0.9-1.5-1.3-3.2-1.2-5c-0.1-1.7,0.3-3.4,1.2-4.9c1.4-1.9,4.1-2.3,6-0.9C67.6,29.7,67.9,30,68.2,30.3z M63.2,31.5
	c-0.4,1.2-0.6,2.4-0.5,3.7c-0.1,1.3,0.1,2.5,0.5,3.7c0.3,0.9,1.3,1.3,2.2,1c0.5-0.2,0.8-0.5,1-1c0.4-1.2,0.6-2.5,0.5-3.7
	c0.1-1.3-0.1-2.5-0.5-3.7c-0.3-0.9-1.3-1.3-2.2-1C63.7,30.7,63.3,31.1,63.2,31.5L63.2,31.5z"/>
<line class="st2" x1="77.4" y1="190.2" x2="456.2" y2="190.2"/>
<line class="st3" x1="77.4" y1="205.6" x2="456.2" y2="205.6"/>
<line class="st2" x1="77.4" y1="152.1" x2="456.2" y2="152.1"/>
<line class="st2" x1="77.4" y1="114" x2="456.2" y2="114"/>
<line class="st2" x1="77.4" y1="75.9" x2="456.2" y2="75.9"/>
<line class="st2" x1="77.4" y1="37.8" x2="456.2" y2="37.8"/>
<line class="st2" x1="140.5" y1="205.6" x2="140.5" y2="15.5"/>
<line class="st2" x1="203.6" y1="205.6" x2="203.6" y2="15.5"/>
<line class="st2" x1="266.6" y1="205.6" x2="266.6" y2="15.5"/>
<line class="st2" x1="329.7" y1="205.6" x2="329.7" y2="15.5"/>
<line class="st2" x1="455.9" y1="205.6" x2="455.9" y2="15.5"/>
<path d="M97.8,231.7c0.1,1.4-0.3,2.8-1.2,3.9c-1,0.9-2.2,1.6-3.5,2l-0.8-2.2c0.6-0.2,1.1-0.5,1.5-0.9c0.3-0.3,0.6-0.7,0.7-1.2
	c0.1-0.6,0.2-1.2,0.2-1.8v-13.4h3.1L97.8,231.7z"/>
<path d="M110.6,231.8c0.2,0.2,0.4,0.4,0.7,0.5l-0.6,2c-0.6,0-1.2-0.2-1.7-0.5s-0.8-0.8-1-1.3c-0.4,0.6-0.9,1.1-1.6,1.4
	c-0.7,0.3-1.4,0.5-2.1,0.4c-1.1,0.1-2.1-0.3-2.9-1c-0.7-0.7-1.1-1.7-1.1-2.7c-0.1-1.2,0.5-2.3,1.4-3c1.2-0.8,2.7-1.1,4.1-1h1.5V226
	c0.1-0.6-0.1-1.2-0.5-1.6c-0.5-0.4-1.1-0.5-1.7-0.5c-1.1,0-2.2,0.3-3.2,0.6l-0.7-2c1.4-0.6,2.9-0.9,4.4-0.9c3.1,0,4.7,1.4,4.7,4.2
	v5.1C110.4,231.3,110.4,231.6,110.6,231.8z M107.4,230.7v-2.5h-1.2c-1.9,0-2.8,0.7-2.8,2.1c0,0.5,0.1,1,0.4,1.4
	c0.3,0.3,0.8,0.5,1.3,0.5C106.1,232.2,107,231.6,107.4,230.7L107.4,230.7z"/>
<path d="M122.9,222.5c0.6,0.8,1,1.7,0.9,2.7v8.8h-2.9v-8.4c0.1-0.5-0.1-1.1-0.4-1.5c-0.3-0.3-0.7-0.5-1.1-0.4c-0.5,0-1,0.2-1.4,0.5
	c-0.5,0.4-0.9,0.8-1.2,1.4v8.5h-2.9v-12.2h2.6l0.2,1.6c0.8-1.2,2.2-1.9,3.7-1.9C121.4,221.4,122.3,221.8,122.9,222.5z"/>
<path d="M155.8,234v-15.9h9l-0.3,2.2h-5.6v4.8h4.9v2.2h-4.9v6.6L155.8,234L155.8,234z"/>
<path d="M176,228.8h-7.6c0,0.9,0.3,1.8,0.9,2.5c0.6,0.5,1.3,0.8,2.1,0.8c0.5,0,1-0.1,1.5-0.3s1-0.5,1.5-0.8l1.2,1.7
	c-1.3,1.1-2.9,1.6-4.5,1.6c-1.6,0.1-3.2-0.5-4.3-1.7c-1.1-1.3-1.6-3-1.5-4.6c0-1.1,0.2-2.3,0.6-3.4c0.4-0.9,1-1.7,1.9-2.3
	c2.2-1.4,5-1,6.9,0.8c1,1.3,1.5,2.9,1.4,4.5C176.1,227.8,176.1,228.2,176,228.8z M173.1,226.8c0-2.1-0.8-3.2-2.4-3.2
	c-0.7,0-1.3,0.3-1.7,0.8c-0.5,0.8-0.7,1.6-0.7,2.5h4.8L173.1,226.8L173.1,226.8z"/>
<path d="M188.4,223.2c0.9,1.4,1.3,3.1,1.2,4.7c0,1.1-0.2,2.3-0.6,3.4c-0.3,0.9-0.9,1.7-1.7,2.3c-0.7,0.5-1.6,0.8-2.6,0.8
	c-0.6,0-1.2-0.1-1.8-0.4c-0.6-0.3-1-0.7-1.4-1.2l-0.2,1.2h-2.6v-17l2.9-0.3v6.6c0.4-0.5,0.9-1,1.5-1.3s1.2-0.5,1.9-0.4
	C186.4,221.5,187.6,222.1,188.4,223.2z M185.8,231.1c0.5-1,0.7-2.1,0.7-3.2c0.1-1.1-0.1-2.2-0.6-3.2c-0.4-0.6-1-1-1.8-1
	c-1,0.1-2,0.7-2.4,1.7v5.4c0.2,0.4,0.6,0.8,1,1s0.8,0.4,1.3,0.4C184.7,232.1,185.4,231.7,185.8,231.1L185.8,231.1z"/>
<path d="M12.6,128.9v9.1h-1.8v-9.1H12.6z"/>
<path d="M20.6,128.2v9.8h-1.5l-0.1-0.9c-0.2,0.3-0.5,0.6-0.8,0.8c-0.4,0.2-0.8,0.3-1.2,0.3c-0.8,0-1.6-0.3-2-1
	c-0.5-0.8-0.7-1.8-0.7-2.7c0-0.7,0.1-1.3,0.3-1.9c0.2-0.5,0.6-1,1-1.3c1-0.7,2.4-0.6,3.2,0.3V128L20.6,128.2z M18.3,136.7
	c0.3-0.2,0.5-0.4,0.6-0.7v-3.2c-0.2-0.2-0.4-0.4-0.6-0.6c-0.2-0.1-0.5-0.2-0.7-0.2c-0.4,0-0.8,0.2-1.1,0.6c-0.3,0.6-0.4,1.2-0.4,1.8
	s0.1,1.3,0.3,1.9c0.2,0.4,0.6,0.6,1,0.6C17.8,136.9,18,136.8,18.3,136.7L18.3,136.7z"/>
<path d="M28.3,135H24c0,0.5,0.2,1,0.5,1.4c0.3,0.3,0.8,0.5,1.2,0.4c0.3,0,0.6,0,0.9-0.1s0.6-0.3,0.9-0.5l0.7,1
	c-0.7,0.6-1.6,0.9-2.6,0.9c-0.9,0-1.8-0.3-2.5-1c-0.6-0.8-0.9-1.7-0.9-2.7c0-0.7,0.1-1.3,0.4-1.9c0.2-0.5,0.6-1,1.1-1.3
	c1.3-0.8,2.9-0.6,3.9,0.4c0.6,0.7,0.9,1.7,0.8,2.6C28.4,134.4,28.4,134.7,28.3,135z M26.7,133.8c0-1.2-0.5-1.8-1.4-1.8
	c-0.4,0-0.8,0.1-1,0.5c-0.3,0.4-0.4,0.9-0.4,1.5L26.7,133.8L26.7,133.8z"/>
<path d="M35.1,136.7c0.1,0.1,0.2,0.2,0.4,0.3l-0.4,1.1c-0.4,0-0.7-0.1-1-0.3s-0.5-0.4-0.6-0.7c-0.2,0.3-0.5,0.6-0.9,0.8
	s-0.8,0.3-1.2,0.3c-0.6,0-1.2-0.2-1.6-0.6c-0.4-0.4-0.6-1-0.6-1.6c0-0.7,0.3-1.3,0.8-1.7c0.7-0.4,1.5-0.7,2.4-0.6h0.9v-0.4
	c0-0.3-0.1-0.7-0.3-0.9c-0.3-0.2-0.6-0.3-1-0.3c-0.6,0-1.3,0.1-1.9,0.4l-0.4-1.1c0.8-0.3,1.7-0.5,2.5-0.5c1.8,0,2.7,0.8,2.7,2.4v2.9
	C34.9,136.4,35,136.6,35.1,136.7z M33.3,136.1v-1.4h-0.7c-1.1,0-1.6,0.4-1.6,1.2c0,0.3,0.1,0.6,0.2,0.8c0.2,0.2,0.5,0.3,0.7,0.3
	C32.5,137,33,136.6,33.3,136.1z"/>
<path d="M37.2,137.7c-0.3-0.4-0.5-0.8-0.5-1.3v-8.2l1.7-0.2v8.3c0,0.3,0.1,0.5,0.4,0.5c0.1,0,0.3,0,0.4-0.1l0.4,1.2
	c-0.4,0.2-0.7,0.2-1.1,0.2C38,138.2,37.6,138.1,37.2,137.7z"/>
<path d="M232.8,234h-3l-0.4-6.6c-0.1-2.4-0.2-4.3-0.2-5.7v-0.8l-2.9,11.4h-2.8l-3.1-11.4c0,1,0,1.8,0,2.3c0,1.4,0,2.8-0.1,4.3
	l-0.4,6.6H217l1.3-15.9h3.9l2.8,11.1l2.7-11.1h4L232.8,234z"/>
<path d="M244.8,231.8c0.2,0.2,0.4,0.4,0.7,0.5l-0.6,2c-0.6,0-1.2-0.2-1.7-0.5s-0.8-0.8-1-1.3c-0.4,0.6-0.9,1.1-1.6,1.4
	c-0.7,0.3-1.4,0.5-2.1,0.4c-1.1,0.1-2.1-0.3-2.9-1c-0.7-0.7-1.1-1.7-1.1-2.7c-0.1-1.2,0.5-2.3,1.4-3c1.2-0.8,2.7-1.1,4.1-1h1.5V226
	c0.1-0.6-0.1-1.2-0.5-1.6c-0.5-0.4-1.1-0.5-1.7-0.5c-1.1,0-2.2,0.3-3.2,0.6l-0.7-2c1.4-0.6,2.9-0.9,4.4-0.9c3.1,0,4.7,1.4,4.7,4.2
	v5.1C244.6,231.3,244.7,231.6,244.8,231.8z M241.7,230.7v-2.5h-1.2c-1.9,0-2.9,0.7-2.9,2.1c0,0.5,0.1,1,0.4,1.4
	c0.3,0.3,0.8,0.5,1.3,0.5C240.3,232.2,241.3,231.6,241.7,230.7L241.7,230.7z"/>
<path d="M255.4,221.7l-0.5,2.9c-0.4-0.1-0.7-0.1-1.1-0.1c-0.7,0-1.3,0.3-1.7,0.8c-0.5,0.7-0.8,1.5-1,2.4v6.5h-2.9V222h2.6l0.3,2.4
	c0.2-0.8,0.7-1.5,1.3-2c0.5-0.5,1.2-0.7,1.9-0.7C254.6,221.5,255,221.6,255.4,221.7z"/>
<path d="M291.2,234l-1-3.7H285l-1,3.7h-3.1l5-15.9h3.8l4.9,15.9H291.2z M285.6,228h4l-2-7.6L285.6,228z"/>
<path d="M305.9,223.2c0.8,1.4,1.2,3.1,1.1,4.7c0,1.1-0.2,2.3-0.6,3.4c-0.3,0.9-0.9,1.7-1.7,2.3c-0.7,0.6-1.7,0.9-2.6,0.8
	c-1.2,0.1-2.3-0.4-3.1-1.3v5.7l-2.9,0.3v-17.2h2.6l0.2,1.5c0.4-0.6,1-1,1.6-1.4c0.6-0.3,1.3-0.5,1.9-0.5
	C303.8,221.4,305.1,222,305.9,223.2z M303.9,227.9c0.1-1.1-0.1-2.2-0.6-3.2c-0.3-0.6-1-1-1.7-1c-0.5,0-1,0.2-1.4,0.4
	c-0.4,0.3-0.8,0.7-1.1,1.2v5.5c0.5,0.8,1.3,1.3,2.2,1.3C303,232.1,303.9,230.7,303.9,227.9L303.9,227.9z"/>
<path d="M317.1,221.7l-0.5,2.9c-0.4-0.1-0.7-0.1-1.1-0.1c-0.7,0-1.3,0.3-1.7,0.8c-0.5,0.7-0.8,1.5-1,2.4v6.5h-2.9V222h2.5l0.3,2.4
	c0.2-0.8,0.7-1.5,1.3-2c0.5-0.5,1.2-0.7,1.9-0.7C316.3,221.5,316.7,221.6,317.1,221.7z"/>
<path d="M358.4,234h-3l-0.4-6.6c-0.1-2.4-0.2-4.3-0.2-5.7v-0.8l-2.9,11.4H349l-3.1-11.4c0,1,0,1.8,0,2.3c0,1.4,0,2.8-0.1,4.3
	l-0.4,6.6h-2.9l1.3-15.9h3.9l2.8,11.1l2.7-11.1h4L358.4,234z"/>
<path d="M370.4,231.8c0.2,0.2,0.4,0.4,0.7,0.5l-0.6,2c-0.6,0-1.2-0.2-1.7-0.5s-0.8-0.8-1-1.3c-0.4,0.6-0.9,1.1-1.5,1.4
	c-0.7,0.3-1.4,0.5-2.1,0.4c-1.1,0.1-2.1-0.3-2.9-1c-0.7-0.7-1.1-1.7-1.1-2.7c-0.1-1.2,0.5-2.3,1.4-3c1.2-0.8,2.7-1.1,4.1-1h1.5V226
	c0.1-0.6-0.1-1.2-0.5-1.6c-0.5-0.4-1.1-0.5-1.7-0.5c-1.1,0-2.2,0.3-3.2,0.6l-0.7-2c1.4-0.6,2.9-0.9,4.4-0.9c3.1,0,4.7,1.4,4.7,4.2
	v5.1C370.2,231.3,370.3,231.6,370.4,231.8z M367.3,230.7v-2.5h-1.2c-1.9,0-2.9,0.7-2.9,2.1c0,0.5,0.1,1,0.4,1.4
	c0.3,0.3,0.8,0.5,1.3,0.5C365.9,232.2,366.9,231.6,367.3,230.7L367.3,230.7z"/>
<path d="M379.3,234c-0.4,1.4-1.2,2.6-2.2,3.5c-1.2,0.9-2.6,1.4-4.1,1.4l-0.3-2.1c0.7-0.1,1.3-0.3,1.9-0.5c0.5-0.2,0.8-0.5,1.2-0.9
	c0.3-0.4,0.6-0.9,0.8-1.5h-1l-3.9-12.2h3.1l2.6,10.2l2.8-10.2h3L379.3,234z"/>
<path d="M414.2,231.7c0.1,1.4-0.3,2.8-1.2,3.9c-1,0.9-2.2,1.6-3.5,2l-0.8-2.2c0.6-0.2,1.1-0.5,1.5-0.9c0.3-0.3,0.6-0.7,0.7-1.2
	c0.1-0.6,0.2-1.2,0.2-1.8v-13.4h3.1L414.2,231.7z"/>
<path d="M427.5,234H425l-0.2-1.7c-0.4,0.6-0.9,1.2-1.6,1.5c-0.7,0.4-1.4,0.5-2.1,0.5c-0.9,0.1-1.9-0.3-2.5-1c-0.6-0.8-1-1.8-0.9-2.8
	v-8.7h2.9v8.4c0,0.5,0.1,1,0.4,1.5c0.3,0.3,0.7,0.5,1.1,0.4c1.1-0.1,2-0.7,2.5-1.7v-8.6h2.9L427.5,234z"/>
<path d="M440.1,222.5c0.6,0.8,1,1.7,0.9,2.7v8.8h-3v-8.4c0.1-0.5-0.1-1.1-0.4-1.5c-0.3-0.3-0.7-0.5-1.1-0.4c-0.5,0-1,0.2-1.4,0.5
	c-0.5,0.4-0.9,0.9-1.2,1.4v8.5H431v-12.2h2.5l0.2,1.6c0.8-1.2,2.2-1.9,3.7-1.9C438.5,221.4,439.4,221.8,440.1,222.5z"/>
<path d="M22.5,16.2c-0.5,0.7-0.9,1.4-1.3,2.2c-0.3,0.7-0.6,1.4-0.8,2.2c-0.2,0.9-0.3,1.9-0.3,2.9s0.1,1.9,0.3,2.9
	c0.2,0.8,0.4,1.5,0.8,2.2c0.4,0.8,0.8,1.5,1.3,2.2l-0.9,0.6c-0.7-1-1.2-1.8-1.6-2.5s-0.8-1.5-1-2.3c-0.3-1-0.4-2.1-0.4-3.1
	c0-1.1,0.1-2.1,0.4-3.1c0.2-0.8,0.6-1.6,1-2.3c0.4-0.7,0.9-1.5,1.6-2.5L22.5,16.2z"/>
<path d="M28.4,18.9c0.5,0.5,0.8,1.3,0.7,2c0,0.7-0.2,1.5-0.7,2c-1.1,1-2.7,1-3.7,0c-0.5-0.5-0.8-1.3-0.7-2c0-0.7,0.2-1.5,0.7-2
	C25.7,17.9,27.3,17.9,28.4,18.9z M25.5,19.6c-0.4,0.8-0.4,1.7,0,2.5c0.2,0.3,0.6,0.5,1,0.5c0.9,0,1.3-0.6,1.3-1.7
	c0-0.4-0.1-0.8-0.3-1.2c-0.2-0.3-0.6-0.5-1-0.5C26.1,19.1,25.7,19.3,25.5,19.6L25.5,19.6z M33,17.6l1,0.7l-7.4,11.2l-1-0.7L33,17.6z
	 M35,24.5c1,1.1,1,2.8,0,3.9c-1.1,1-2.7,1-3.8,0c-1-1.1-1-2.8,0-3.9C32.3,23.6,33.9,23.6,35,24.5z M32.1,25.3
	c-0.2,0.4-0.3,0.8-0.3,1.2c0,0.4,0.1,0.8,0.3,1.2c0.2,0.3,0.6,0.5,1,0.5c0.9,0,1.3-0.6,1.3-1.7c0-0.4-0.1-0.8-0.3-1.2
	c-0.5-0.6-1.3-0.6-1.8-0.2C32.2,25.2,32.2,25.2,32.1,25.3L32.1,25.3z"/>
<path d="M39.6,18c0.4,0.7,0.8,1.5,1,2.3c0.3,1,0.4,2.1,0.4,3.1c0,1.1-0.1,2.1-0.4,3.1c-0.2,0.8-0.6,1.6-1,2.3
	c-0.4,0.7-0.9,1.5-1.6,2.5l-1-0.7c0.5-0.7,0.9-1.4,1.3-2.2c0.3-0.7,0.6-1.5,0.8-2.2c0.2-0.9,0.3-1.9,0.3-2.9s-0.1-1.9-0.3-2.9
	c-0.2-0.8-0.4-1.5-0.8-2.2c-0.4-0.8-0.8-1.5-1.3-2.2l0.9-0.6C38.6,16.5,39.2,17.3,39.6,18z"/>
</svg>
