<?xml version="1.0" encoding="utf-8"?>
<!-- Generator: Adobe Illustrator 22.0.0, SVG Export Plug-In . SVG Version: 6.00 Build 0)  -->
<svg version="1.1" id="Layer_2_1_" xmlns="http://www.w3.org/2000/svg" xmlns:xlink="http://www.w3.org/1999/xlink" x="0px" y="0px"
	 viewBox="0 0 480 270" style="enable-background:new 0 0 480 270;" xml:space="preserve">
<style type="text/css">
	.st0{fill:none;stroke:#1D1D1B;stroke-width:0.25;stroke-miterlimit:10;}
	.st1{fill:none;stroke:#1D1D1B;stroke-miterlimit:10;}
	.st2{fill:none;stroke:#1D1D1B;stroke-width:3;stroke-linecap:round;stroke-miterlimit:10;}
	.st3{fill:#FFFFF0;stroke:#000000;stroke-width:2.0044;stroke-miterlimit:10;}
</style>
<title>Scale Charts</title>
<line class="st0" x1="392.8" y1="205.6" x2="392.8" y2="15.5"/>
<line class="st1" x1="77.4" y1="15.5" x2="77.4" y2="205.6"/>
<path d="M58.8,187.9v1.9h-1.5v2.9h-2.4v-2.9h-5.4v-1.7l3.7-8.4l2.1,0.8L52,188h2.9l0.2-3.2h2.1v3.2h1.6V187.9z"/>
<path d="M68.2,181.4c1.6,3.1,1.6,6.8,0,9.9c-1.4,1.9-4,2.3-5.9,0.9c-0.3-0.3-0.6-0.6-0.9-0.9c-1.6-3.1-1.6-6.8,0-9.9
	c1.4-1.9,4.1-2.3,6-0.9C67.6,180.8,67.9,181.1,68.2,181.4z M63.2,182.6c-0.4,1.2-0.6,2.4-0.5,3.7c-0.1,1.3,0.1,2.5,0.5,3.7
	c0.3,0.9,1.3,1.3,2.2,1c0.5-0.2,0.8-0.5,1-1c0.4-1.2,0.6-2.5,0.5-3.7c0.1-1.3-0.1-2.5-0.5-3.7c-0.3-0.9-1.3-1.3-2.2-1
	C63.7,181.8,63.3,182.2,63.2,182.6L63.2,182.6z"/>
<path d="M44.6,150.2v1.8h-1.5v2.9h-2.4V152h-5.4v-1.7l3.7-8.4l2.1,0.8l-3.3,7.5h2.9L41,147h2.1v3.2H44.6z"/>
<path d="M55.1,150.2v1.8h-1.5v2.9h-2.4V152h-5.4v-1.7l3.7-8.4l2.1,0.8l-3.3,7.5h2.9l0.2-3.2h2.1v3.2L55.1,150.2z"/>
<path d="M58.9,152.6c0.6,0.6,0.6,1.6,0,2.2l0,0c-0.3,0.3-0.7,0.5-1.1,0.5c-0.4,0-0.8-0.2-1.1-0.5c-0.6-0.6-0.6-1.6,0-2.2
	c0.3-0.3,0.7-0.5,1.1-0.4C58.2,152.1,58.6,152.3,58.9,152.6z"/>
<path d="M68.7,144h-4.8v3.2c0.6-0.3,1.3-0.5,1.9-0.5c0.7,0,1.3,0.2,1.9,0.5s1,0.8,1.3,1.4c0.3,0.7,0.5,1.4,0.5,2.2s-0.2,1.6-0.6,2.3
	s-1,1.2-1.7,1.6c-0.8,0.4-1.6,0.6-2.5,0.6c-0.8,0-1.5-0.1-2.2-0.5c-0.7-0.3-1.3-0.8-1.8-1.3l1.4-1.3c0.6,0.8,1.6,1.2,2.6,1.2
	c0.6,0,1.3-0.2,1.7-0.7c0.4-0.5,0.7-1.2,0.6-1.9c0-1.6-0.7-2.4-2.1-2.4c-0.3,0-0.6,0-0.8,0.1c-0.3,0.1-0.6,0.2-0.8,0.3h-1.7v-6.7H69
	L68.7,144z"/>
<path d="M59.8,112.4v1.9h-1.5v2.9h-2.4v-2.9h-5.4v-1.7l3.7-8.4l2.1,0.8l-3.3,7.5h2.9l0.2-3.2h2.1v3.2h1.6V112.4z"/>
<path d="M68.3,105.5c0.8,1,1.2,2.3,1.2,3.6c0.1,1.5-0.2,2.9-0.8,4.3c-0.5,1.1-1.4,2-2.4,2.6c-1.3,0.8-2.8,1.3-4.3,1.7l-0.5-1.7
	c1.4-0.3,2.7-0.9,3.8-1.7c0.9-0.7,1.4-1.8,1.6-2.9c-0.6,0.9-1.7,1.4-2.7,1.3c-0.6,0-1.3-0.2-1.8-0.5c-0.6-0.3-1-0.9-1.3-1.4
	c-0.3-0.7-0.5-1.4-0.5-2.2c0-0.8,0.2-1.6,0.6-2.3c0.4-0.6,0.9-1.2,1.6-1.5c0.7-0.4,1.5-0.5,2.2-0.5
	C66.2,104.1,67.4,104.6,68.3,105.5z M67,109.6c0.1-0.9-0.1-1.9-0.4-2.8c-0.3-0.5-0.9-0.8-1.6-0.8c-0.6,0-1.1,0.2-1.5,0.7
	s-0.6,1.2-0.5,1.8c-0.1,0.7,0.1,1.3,0.5,1.8c0.3,0.4,0.8,0.6,1.3,0.6C65.7,110.9,66.6,110.4,67,109.6z"/>
<path d="M44.5,68.4h-4.8v3.2c0.6-0.3,1.3-0.5,1.9-0.5c0.7,0,1.3,0.2,1.9,0.5c0.6,0.3,1,0.8,1.3,1.4c0.3,0.7,0.5,1.4,0.5,2.2
	c0,0.8-0.2,1.6-0.6,2.3c-0.4,0.7-1,1.2-1.7,1.6c-0.8,0.4-1.6,0.6-2.5,0.6c-0.8,0-1.5-0.1-2.2-0.5c-0.7-0.3-1.3-0.8-1.8-1.3l1.4-1.3
	c0.6,0.8,1.6,1.2,2.6,1.2c0.6,0,1.3-0.2,1.7-0.7s0.7-1.2,0.6-1.9c0-1.6-0.7-2.4-2-2.4c-0.3,0-0.6,0-0.8,0.1
	c-0.3,0.1-0.6,0.2-0.8,0.3h-1.7v-6.7h7.4L44.5,68.4z"/>
<path d="M52.5,66.8c0.6,0.3,1.1,0.7,1.4,1.2c0.3,0.5,0.5,1.1,0.5,1.6c0,0.7-0.2,1.4-0.7,1.9s-1.1,0.9-1.8,1.1c0.8,0,1.5,0.4,2.1,0.9
	c0.6,0.6,0.9,1.4,0.8,2.2c0,0.7-0.2,1.4-0.6,2c-0.4,0.6-1,1.1-1.6,1.4c-0.8,0.4-1.6,0.5-2.5,0.5C48.5,79.7,47,79,46,77.8l1.3-1.3
	c0.4,0.4,0.8,0.7,1.3,0.9c0.4,0.2,0.9,0.3,1.4,0.3c0.6,0,1.2-0.2,1.6-0.6c0.4-0.4,0.7-1,0.6-1.6c0.1-0.6-0.2-1.2-0.6-1.6
	c-0.5-0.4-1.1-0.5-1.7-0.5h-1l0.3-1.7h0.7c0.5,0,1.1-0.2,1.5-0.5c0.4-0.4,0.6-0.9,0.6-1.4s-0.2-0.9-0.5-1.2
	c-0.4-0.3-0.9-0.5-1.4-0.4c-0.5,0-0.9,0.1-1.3,0.3c-0.5,0.2-0.9,0.5-1.2,0.8L46.3,68c1.1-1.1,2.5-1.6,4-1.6
	C51,66.4,51.8,66.5,52.5,66.8z"/>
<path d="M58.9,77c0.6,0.6,0.6,1.6,0,2.2l0,0c-0.3,0.3-0.7,0.5-1.1,0.5c-0.4,0-0.8-0.2-1.1-0.5c-0.6-0.6-0.6-1.6,0-2.2
	c0.3-0.3,0.7-0.5,1.1-0.4C58.2,76.5,58.6,76.7,58.9,77z"/>
<path d="M68.7,68.4h-4.8v3.2c0.6-0.3,1.3-0.5,1.9-0.5c0.7,0,1.3,0.2,1.9,0.5s1,0.8,1.3,1.4c0.3,0.7,0.5,1.4,0.5,2.2
	c0,0.8-0.2,1.6-0.6,2.3c-0.4,0.7-1,1.2-1.7,1.6c-0.8,0.4-1.6,0.6-2.5,0.6c-0.8,0-1.5-0.1-2.2-0.5c-0.7-0.3-1.3-0.8-1.8-1.3l1.4-1.3
	c0.6,0.8,1.6,1.2,2.6,1.2c0.6,0,1.3-0.2,1.7-0.7c0.4-0.5,0.7-1.2,0.6-1.9c0-1.6-0.7-2.4-2.1-2.4c-0.3,0-0.6,0-0.8,0.1
	c-0.3,0.1-0.6,0.2-0.8,0.3h-1.7v-6.7H69L68.7,68.4z"/>
<path d="M57.9,30.6h-4.8v3.2c0.6-0.3,1.2-0.5,1.9-0.5s1.3,0.2,1.9,0.5c0.6,0.3,1,0.8,1.3,1.4c0.3,0.7,0.5,1.4,0.5,2.2
	s-0.2,1.6-0.6,2.3c-0.4,0.7-1,1.2-1.7,1.6c-0.8,0.4-1.6,0.6-2.5,0.6c-0.8,0-1.5-0.1-2.2-0.5c-0.7-0.3-1.3-0.8-1.8-1.3l1.4-1.3
	c0.6,0.8,1.6,1.2,2.6,1.2c0.6,0,1.3-0.2,1.7-0.7s0.7-1.2,0.6-1.9c0-1.6-0.7-2.4-2-2.4c-0.3,0-0.6,0-0.8,0.1
	c-0.3,0.1-0.6,0.2-0.8,0.3h-1.7v-6.7h7.4L57.9,30.6z"/>
<path d="M69.5,38.2c0,0.7-0.2,1.3-0.6,1.9c-0.4,0.6-1,1.1-1.7,1.3c-0.8,0.3-1.6,0.5-2.5,0.5c-0.8,0-1.7-0.1-2.5-0.5
	c-0.7-0.3-1.2-0.7-1.6-1.3c-0.4-0.6-0.6-1.2-0.6-1.9c0-1.5,1-2.8,2.4-3.2c-1.2-0.5-1.9-1.7-1.9-3c0-0.6,0.2-1.3,0.6-1.8
	c0.4-0.5,0.9-1,1.5-1.2c0.7-0.3,1.4-0.4,2.1-0.4s1.4,0.1,2.1,0.4c0.6,0.2,1.1,0.6,1.5,1.1s0.6,1.1,0.6,1.8c-0.1,1.3-0.9,2.4-2.1,2.9
	C68.6,35.5,69.5,36.7,69.5,38.2z M66.5,39.6c0.4-0.4,0.6-0.9,0.5-1.4c0-0.5-0.2-1-0.5-1.4c-0.5-0.5-1.2-0.8-1.8-1l-0.6-0.2
	c-1,0.5-1.6,1.5-1.5,2.5c0,0.5,0.2,1.1,0.6,1.4c0.5,0.4,1,0.6,1.6,0.5C65.4,40.1,66,39.9,66.5,39.6L66.5,39.6z M63.5,30.7
	c-0.6,0.7-0.6,1.8,0,2.5c0.4,0.4,0.9,0.6,1.5,0.8l0.4,0.1c0.4-0.2,0.8-0.6,1.1-1c0.2-0.3,0.3-0.7,0.3-1.1c0-0.5-0.2-0.9-0.5-1.2
	c-0.4-0.3-0.9-0.5-1.3-0.5C64.3,30.3,63.9,30.4,63.5,30.7L63.5,30.7z"/>
<line class="st0" x1="77.4" y1="190.2" x2="456.2" y2="190.2"/>
<line class="st1" x1="77.4" y1="205.6" x2="456.2" y2="205.6"/>
<line class="st0" x1="77.4" y1="152.1" x2="456.2" y2="152.1"/>
<line class="st0" x1="77.4" y1="114" x2="456.2" y2="114"/>
<line class="st0" x1="77.4" y1="75.9" x2="456.2" y2="75.9"/>
<line class="st0" x1="77.4" y1="37.8" x2="456.2" y2="37.8"/>
<line class="st0" x1="140.5" y1="205.6" x2="140.5" y2="15.5"/>
<line class="st0" x1="203.6" y1="205.6" x2="203.6" y2="15.5"/>
<line class="st0" x1="266.6" y1="205.6" x2="266.6" y2="15.5"/>
<line class="st0" x1="329.7" y1="205.6" x2="329.7" y2="15.5"/>
<line class="st0" x1="455.9" y1="205.6" x2="455.9" y2="15.5"/>
<path d="M97.8,231.7c0.1,1.4-0.3,2.8-1.2,3.9c-1,0.9-2.2,1.6-3.5,2l-0.8-2.2c0.6-0.2,1.1-0.5,1.5-0.9c0.3-0.3,0.6-0.7,0.7-1.2
	c0.1-0.6,0.2-1.2,0.2-1.8v-13.4h3.1L97.8,231.7z"/>
<path d="M110.6,231.8c0.2,0.2,0.4,0.4,0.7,0.5l-0.6,2c-0.6,0-1.2-0.2-1.7-0.5s-0.8-0.8-1-1.3c-0.4,0.6-0.9,1.1-1.6,1.4
	c-0.7,0.3-1.4,0.5-2.1,0.4c-1.1,0.1-2.1-0.3-2.9-1c-0.7-0.7-1.1-1.7-1.1-2.7c-0.1-1.2,0.5-2.3,1.4-3c1.2-0.8,2.7-1.1,4.1-1h1.5V226
	c0.1-0.6-0.1-1.2-0.5-1.6c-0.5-0.4-1.1-0.5-1.7-0.5c-1.1,0-2.2,0.3-3.2,0.6l-0.7-2c1.4-0.6,2.9-0.9,4.4-0.9c3.1,0,4.7,1.4,4.7,4.2
	v5.1C110.4,231.3,110.4,231.6,110.6,231.8z M107.4,230.7v-2.5h-1.2c-1.9,0-2.8,0.7-2.8,2.1c0,0.5,0.1,1,0.4,1.4
	c0.3,0.3,0.8,0.5,1.3,0.5C106.1,232.2,107,231.6,107.4,230.7L107.4,230.7z"/>
<path d="M122.9,222.5c0.6,0.8,1,1.7,0.9,2.7v8.8h-2.9v-8.4c0.1-0.5-0.1-1.1-0.4-1.5c-0.3-0.3-0.7-0.5-1.1-0.4c-0.5,0-1,0.2-1.4,0.5
	c-0.5,0.4-0.9,0.8-1.2,1.4v8.5h-2.9v-12.2h2.6l0.2,1.6c0.8-1.2,2.2-1.9,3.7-1.9C121.4,221.4,122.3,221.8,122.9,222.5z"/>
<path d="M155.8,234v-15.9h9l-0.3,2.2h-5.6v4.8h4.9v2.2h-4.9v6.6L155.8,234L155.8,234z"/>
<path d="M176,228.8h-7.6c0,0.9,0.3,1.8,0.9,2.5c0.6,0.5,1.3,0.8,2.1,0.8c0.5,0,1-0.1,1.5-0.3s1-0.5,1.5-0.8l1.2,1.7
	c-1.3,1.1-2.9,1.6-4.5,1.6c-1.6,0.1-3.2-0.5-4.3-1.7c-1.1-1.3-1.6-3-1.5-4.6c0-1.1,0.2-2.3,0.6-3.4c0.4-0.9,1-1.7,1.9-2.3
	c2.2-1.4,5-1,6.9,0.8c1,1.3,1.5,2.9,1.4,4.5C176.1,227.8,176.1,228.2,176,228.8z M173.1,226.8c0-2.1-0.8-3.2-2.4-3.2
	c-0.7,0-1.3,0.3-1.7,0.8c-0.5,0.8-0.7,1.6-0.7,2.5h4.8L173.1,226.8L173.1,226.8z"/>
<path d="M188.4,223.2c0.9,1.4,1.3,3.1,1.2,4.7c0,1.1-0.2,2.3-0.6,3.4c-0.3,0.9-0.9,1.7-1.7,2.3c-0.7,0.5-1.6,0.8-2.6,0.8
	c-0.6,0-1.2-0.1-1.8-0.4c-0.6-0.3-1-0.7-1.4-1.2l-0.2,1.2h-2.6v-17l2.9-0.3v6.6c0.4-0.5,0.9-1,1.5-1.3s1.2-0.5,1.9-0.4
	C186.4,221.5,187.6,222.1,188.4,223.2z M185.8,231.1c0.5-1,0.7-2.1,0.7-3.2c0.1-1.1-0.1-2.2-0.6-3.2c-0.4-0.6-1-1-1.8-1
	c-1,0.1-2,0.7-2.4,1.7v5.4c0.2,0.4,0.6,0.8,1,1s0.8,0.4,1.3,0.4C184.7,232.1,185.4,231.7,185.8,231.1L185.8,231.1z"/>
<path d="M232.8,234h-3l-0.4-6.6c-0.1-2.4-0.2-4.3-0.2-5.7v-0.8l-2.9,11.4h-2.8l-3.1-11.4c0,1,0,1.8,0,2.3c0,1.4,0,2.8-0.1,4.3
	l-0.4,6.6H217l1.3-15.9h3.9l2.8,11.1l2.7-11.1h4L232.8,234z"/>
<path d="M244.8,231.8c0.2,0.2,0.4,0.4,0.7,0.5l-0.6,2c-0.6,0-1.2-0.2-1.7-0.5s-0.8-0.8-1-1.3c-0.4,0.6-0.9,1.1-1.6,1.4
	c-0.7,0.3-1.4,0.5-2.1,0.4c-1.1,0.1-2.1-0.3-2.9-1c-0.7-0.7-1.1-1.7-1.1-2.7c-0.1-1.2,0.5-2.3,1.4-3c1.2-0.8,2.7-1.1,4.1-1h1.5V226
	c0.1-0.6-0.1-1.2-0.5-1.6c-0.5-0.4-1.1-0.5-1.7-0.5c-1.1,0-2.2,0.3-3.2,0.6l-0.7-2c1.4-0.6,2.9-0.9,4.4-0.9c3.1,0,4.7,1.4,4.7,4.2
	v5.1C244.6,231.3,244.7,231.6,244.8,231.8z M241.7,230.7v-2.5h-1.2c-1.9,0-2.9,0.7-2.9,2.1c0,0.5,0.1,1,0.4,1.4
	c0.3,0.3,0.8,0.5,1.3,0.5C240.3,232.2,241.3,231.6,241.7,230.7L241.7,230.7z"/>
<path d="M255.4,221.7l-0.5,2.9c-0.4-0.1-0.7-0.1-1.1-0.1c-0.7,0-1.3,0.3-1.7,0.8c-0.5,0.7-0.8,1.5-1,2.4v6.5h-2.9V222h2.6l0.3,2.4
	c0.2-0.8,0.7-1.5,1.3-2c0.5-0.5,1.2-0.7,1.9-0.7C254.6,221.5,255,221.6,255.4,221.7z"/>
<path d="M291.2,234l-1-3.7H285l-1,3.7h-3.1l5-15.9h3.8l4.9,15.9H291.2z M285.6,228h4l-2-7.6L285.6,228z"/>
<path d="M305.9,223.2c0.8,1.4,1.2,3.1,1.1,4.7c0,1.1-0.2,2.3-0.6,3.4c-0.3,0.9-0.9,1.7-1.7,2.3c-0.7,0.6-1.7,0.9-2.6,0.8
	c-1.2,0.1-2.3-0.4-3.1-1.3v5.7l-2.9,0.3v-17.2h2.6l0.2,1.5c0.4-0.6,1-1,1.6-1.4c0.6-0.3,1.3-0.5,1.9-0.5
	C303.8,221.4,305.1,222,305.9,223.2z M303.9,227.9c0.1-1.1-0.1-2.2-0.6-3.2c-0.3-0.6-1-1-1.7-1c-0.5,0-1,0.2-1.4,0.4
	c-0.4,0.3-0.8,0.7-1.1,1.2v5.5c0.5,0.8,1.3,1.3,2.2,1.3C303,232.1,303.9,230.7,303.9,227.9L303.9,227.9z"/>
<path d="M317.1,221.7l-0.5,2.9c-0.4-0.1-0.7-0.1-1.1-0.1c-0.7,0-1.3,0.3-1.7,0.8c-0.5,0.7-0.8,1.5-1,2.4v6.5h-2.9V222h2.5l0.3,2.4
	c0.2-0.8,0.7-1.5,1.3-2c0.5-0.5,1.2-0.7,1.9-0.7C316.3,221.5,316.7,221.6,317.1,221.7z"/>
<path d="M358.4,234h-3l-0.4-6.6c-0.1-2.4-0.2-4.3-0.2-5.7v-0.8l-2.9,11.4H349l-3.1-11.4c0,1,0,1.8,0,2.3c0,1.4,0,2.8-0.1,4.3
	l-0.4,6.6h-2.9l1.3-15.9h3.9l2.8,11.1l2.7-11.1h4L358.4,234z"/>
<path d="M370.4,231.8c0.2,0.2,0.4,0.4,0.7,0.5l-0.6,2c-0.6,0-1.2-0.2-1.7-0.5s-0.8-0.8-1-1.3c-0.4,0.6-0.9,1.1-1.5,1.4
	c-0.7,0.3-1.4,0.5-2.1,0.4c-1.1,0.1-2.1-0.3-2.9-1c-0.7-0.7-1.1-1.7-1.1-2.7c-0.1-1.2,0.5-2.3,1.4-3c1.2-0.8,2.7-1.1,4.1-1h1.5V226
	c0.1-0.6-0.1-1.2-0.5-1.6c-0.5-0.4-1.1-0.5-1.7-0.5c-1.1,0-2.2,0.3-3.2,0.6l-0.7-2c1.4-0.6,2.9-0.9,4.4-0.9c3.1,0,4.7,1.4,4.7,4.2
	v5.1C370.2,231.3,370.3,231.6,370.4,231.8z M367.3,230.7v-2.5h-1.2c-1.9,0-2.9,0.7-2.9,2.1c0,0.5,0.1,1,0.4,1.4
	c0.3,0.3,0.8,0.5,1.3,0.5C365.9,232.2,366.9,231.6,367.3,230.7z"/>
<path d="M379.3,234c-0.4,1.4-1.2,2.6-2.2,3.5c-1.2,0.9-2.6,1.4-4.1,1.4l-0.3-2.1c0.7-0.1,1.3-0.3,1.9-0.5c0.5-0.2,0.8-0.5,1.2-0.9
	c0.3-0.4,0.6-0.9,0.8-1.5h-1l-3.9-12.2h3.1l2.6,10.2l2.8-10.2h3L379.3,234z"/>
<path d="M414.2,231.7c0.1,1.4-0.3,2.8-1.2,3.9c-1,0.9-2.2,1.6-3.5,2l-0.8-2.2c0.6-0.2,1.1-0.5,1.5-0.9c0.3-0.3,0.6-0.7,0.7-1.2
	c0.1-0.6,0.2-1.2,0.2-1.8v-13.4h3.1L414.2,231.7z"/>
<path d="M427.5,234H425l-0.2-1.7c-0.4,0.6-0.9,1.2-1.6,1.5c-0.7,0.4-1.4,0.5-2.1,0.5c-0.9,0.1-1.9-0.3-2.5-1c-0.6-0.8-1-1.8-0.9-2.8
	v-8.7h2.9v8.4c0,0.5,0.1,1,0.4,1.5c0.3,0.3,0.7,0.5,1.1,0.4c1.1-0.1,2-0.7,2.5-1.7v-8.6h2.9L427.5,234z"/>
<path d="M440.1,222.5c0.6,0.8,1,1.7,0.9,2.7v8.8h-3v-8.4c0.1-0.5-0.1-1.1-0.4-1.5c-0.3-0.3-0.7-0.5-1.1-0.4c-0.5,0-1,0.2-1.4,0.5
	c-0.5,0.4-0.9,0.9-1.2,1.4v8.5H431v-12.2h2.5l0.2,1.6c0.8-1.2,2.2-1.9,3.7-1.9C438.5,221.4,439.4,221.8,440.1,222.5z"/>
<path class="st2" d="M78.5,135c-2.4,0,49.8-16.4,68-16.6c34.3-0.5,39.5-18.2,54.6-21.6s45,2.1,52.5-3s43.2-55.5,63.9-55.5
	s86.8,69,96.7,74"/>
<path d="M19.5,16.2c-0.5,0.7-0.9,1.4-1.3,2.2c-0.3,0.7-0.6,1.4-0.8,2.2c-0.2,0.9-0.3,1.9-0.3,2.9s0.1,1.9,0.3,2.9
	c0.2,0.8,0.4,1.5,0.8,2.2c0.4,0.8,0.8,1.5,1.3,2.2l-0.9,0.6c-0.7-1-1.2-1.8-1.6-2.5s-0.8-1.5-1-2.3c-0.3-1-0.4-2.1-0.4-3.1
	c0-1.1,0.1-2.1,0.4-3.1c0.2-0.8,0.6-1.6,1-2.3c0.4-0.7,0.9-1.5,1.6-2.5L19.5,16.2z"/>
<path d="M23.1,17v12h-1.5V17.2L23.1,17z M28,20.6l-3.1,3.7l3.5,4.7h-1.8l-3.3-4.6l3.1-3.8H28z"/>
<path d="M36.6,21c-0.3,0.1-0.7,0.2-1.1,0.2c-0.4,0-0.9,0-1.4,0c0.9,0.3,1.5,1.2,1.5,2.1c0,0.8-0.3,1.5-0.9,2.1
	c-0.7,0.6-1.5,0.8-2.3,0.8c-0.4,0-0.7-0.1-1.1-0.2c-0.1,0.1-0.2,0.2-0.3,0.3c-0.1,0.1-0.1,0.3-0.1,0.4c0,0.5,0.4,0.7,1.1,0.7h1.3
	c0.5,0,1,0.1,1.5,0.3c0.4,0.2,0.7,0.5,1,0.8c0.2,0.4,0.4,0.8,0.4,1.2c0,0.8-0.4,1.5-1,1.9c-0.9,0.5-1.9,0.7-2.9,0.7
	c-0.7,0-1.5-0.1-2.1-0.3c-0.4-0.1-0.8-0.4-1.1-0.8c-0.2-0.4-0.4-0.9-0.3-1.4H30c0,0.3,0,0.6,0.2,0.8c0.2,0.2,0.4,0.4,0.7,0.5
	c0.5,0.1,0.9,0.2,1.4,0.1c0.7,0,1.3-0.1,1.9-0.3c0.4-0.2,0.6-0.6,0.6-1s-0.1-0.7-0.5-0.9c-0.4-0.2-0.8-0.3-1.2-0.3h-1.4
	c-0.6,0-1.1-0.1-1.6-0.5c-0.4-0.3-0.6-0.7-0.5-1.1c0-0.3,0.1-0.6,0.2-0.8c0.2-0.3,0.4-0.5,0.7-0.7c-0.4-0.2-0.8-0.6-1.1-1
	c-0.2-0.4-0.4-0.8-0.4-1.3s0.1-1.1,0.4-1.5s0.7-0.8,1.2-1c0.5-0.3,1.1-0.4,1.7-0.4s1.1,0,1.7-0.1c0.4-0.1,0.7-0.2,1.1-0.3
	c0.3-0.1,0.7-0.2,1.1-0.4L36.6,21z M31,22c-0.6,0.8-0.6,1.9,0,2.8c0.3,0.4,0.8,0.5,1.3,0.5s1-0.1,1.3-0.5s0.5-0.9,0.5-1.4
	c0-1-0.8-1.8-1.8-1.9C31.8,21.5,31.4,21.7,31,22z"/>
<path d="M39.8,18c0.4,0.7,0.8,1.5,1,2.3c0.3,1,0.4,2.1,0.4,3.1c0,1.1-0.1,2.1-0.4,3.1c-0.2,0.8-0.6,1.6-1,2.3
	c-0.4,0.7-0.9,1.5-1.6,2.5l-0.9-0.6c0.5-0.7,0.9-1.4,1.3-2.2c0.3-0.7,0.6-1.5,0.8-2.2c0.2-0.9,0.3-1.9,0.3-2.9s-0.1-1.9-0.3-2.9
	c-0.2-0.8-0.4-1.5-0.8-2.2c-0.4-0.8-0.8-1.5-1.3-2.2l0.9-0.6C38.8,16.5,39.4,17.3,39.8,18z"/>
<circle class="st3" cx="414.2" cy="112.3" r="3.5"/>
</svg>
