<?xml version="1.0" encoding="utf-8"?>
<!-- Generator: Adobe Illustrator 22.0.0, SVG Export Plug-In . SVG Version: 6.00 Build 0)  -->
<svg version="1.1" id="Layer_2_1_" xmlns="http://www.w3.org/2000/svg" xmlns:xlink="http://www.w3.org/1999/xlink" x="0px" y="0px"
	 viewBox="0 0 480 270" style="enable-background:new 0 0 480 270;" xml:space="preserve">
<style type="text/css">
	.st0{fill:none;stroke:#1D1D1B;stroke-miterlimit:10;}
	.st1{fill:none;stroke:#1D1D1B;stroke-width:0.25;stroke-miterlimit:10;}
	.st2{clip-path:url(#SVGID_2_);}
	.st3{fill:none;stroke:#000000;stroke-width:0.2835;stroke-miterlimit:10;}
</style>
<title>Scale Charts</title>
<line class="st0" x1="77.4" y1="15.5" x2="77.4" y2="205.6"/>
<path d="M57.5,179.9v12.8h-2.4v-10.3l-2.8,1.7l-1.1-1.6l4.2-2.6L57.5,179.9z"/>
<path d="M68.2,181.4c1.6,3.1,1.6,6.8,0,9.9c-1.4,1.9-4,2.3-5.9,0.9c-0.3-0.3-0.6-0.6-0.9-0.9c-1.6-3.1-1.6-6.8,0-9.9
	c1.4-1.9,4.1-2.3,6-0.9C67.6,180.8,67.9,181.1,68.2,181.4z M63.2,182.6c-0.4,1.2-0.6,2.4-0.5,3.7c-0.1,1.3,0.1,2.5,0.5,3.7
	c0.3,0.9,1.3,1.3,2.2,1c0.5-0.2,0.8-0.5,1-1c0.4-1.2,0.6-2.5,0.5-3.7c0.1-1.3-0.1-2.5-0.5-3.7c-0.3-0.9-1.3-1.3-2.2-1
	C63.7,181.8,63.3,182.2,63.2,182.6L63.2,182.6z"/>
<path d="M56.3,142.4c1.2,0.6,2,1.8,1.9,3.1c0,0.7-0.2,1.4-0.5,2.1c-0.4,0.8-0.9,1.6-1.5,2.2c-0.7,0.8-1.8,1.8-3.2,3.2h5.5l-0.3,1.9
	h-8v-1.8c1.6-1.6,2.8-2.9,3.5-3.7c0.6-0.6,1.1-1.3,1.5-2c0.3-0.5,0.4-1.1,0.5-1.8c0.1-0.9-0.6-1.8-1.6-1.9c-0.1,0-0.2,0-0.3,0
	c-0.5,0-0.9,0.1-1.3,0.3c-0.4,0.3-0.8,0.6-1.2,1l-1.3-1c1-1.3,2.5-2.1,4.1-2.1C54.9,141.9,55.7,142.1,56.3,142.4z"/>
<path d="M68.2,143.6c1.6,3.1,1.6,6.8,0,9.9c-1.4,1.9-4,2.3-5.9,0.9c-0.3-0.3-0.6-0.6-0.9-0.9c-1.6-3.1-1.6-6.8,0-9.9
	c1.4-1.9,4.1-2.3,6-0.9C67.6,143,67.9,143.3,68.2,143.6z M63.2,144.9c-0.4,1.2-0.6,2.4-0.5,3.7c-0.1,1.3,0.1,2.5,0.5,3.7
	c0.3,0.9,1.3,1.3,2.2,1c0.5-0.2,0.8-0.5,1-1c0.4-1.2,0.6-2.5,0.5-3.7c0.1-1.3-0.1-2.5-0.5-3.7c-0.3-0.9-1.3-1.3-2.2-1
	C63.7,144.1,63.3,144.4,63.2,144.9L63.2,144.9z"/>
<path d="M56.2,104.6c0.6,0.3,1.1,0.7,1.4,1.2c0.3,0.5,0.5,1.1,0.5,1.6c0,0.7-0.2,1.4-0.7,1.9s-1.1,0.9-1.8,1.1
	c0.8,0,1.5,0.4,2.1,0.9c0.6,0.6,0.9,1.4,0.8,2.2c0,0.7-0.2,1.4-0.6,2c-0.4,0.6-1,1.1-1.6,1.4c-0.8,0.4-1.6,0.5-2.5,0.5
	c-1.6,0.1-3.1-0.6-4.1-1.8l1.3-1.3c0.4,0.4,0.8,0.7,1.3,0.9c0.4,0.2,0.9,0.3,1.4,0.3c0.6,0,1.2-0.2,1.6-0.6c0.4-0.4,0.7-1,0.6-1.6
	c0.1-0.6-0.2-1.2-0.6-1.6c-0.5-0.3-1.1-0.5-1.7-0.5h-1l0.3-1.7h0.7c0.5,0,1.1-0.2,1.5-0.5c0.4-0.4,0.6-0.9,0.6-1.4s-0.2-0.9-0.5-1.2
	c-0.4-0.3-0.9-0.5-1.4-0.4c-0.5,0-0.9,0.1-1.3,0.3c-0.4,0.2-0.9,0.5-1.2,0.8l-1.3-1.3c1.1-1.1,2.5-1.6,4-1.6
	C54.8,104.1,55.5,104.3,56.2,104.6z"/>
<path d="M68.2,105.9c1.6,3.1,1.6,6.8,0,9.9c-1.4,1.9-4,2.3-5.9,0.9c-0.3-0.3-0.6-0.6-0.9-0.9c-1.6-3.1-1.6-6.8,0-9.9
	c1.4-1.9,4.1-2.3,6-0.9C67.6,105.3,67.9,105.5,68.2,105.9z M63.2,107.1c-0.4,1.2-0.6,2.4-0.5,3.7c-0.1,1.3,0.1,2.5,0.5,3.7
	c0.3,0.9,1.3,1.3,2.2,1c0.5-0.2,0.8-0.5,1-1c0.4-1.2,0.6-2.5,0.5-3.7c0.1-1.3-0.1-2.5-0.5-3.7c-0.3-0.9-1.3-1.3-2.2-1
	C63.7,106.3,63.3,106.6,63.2,107.1L63.2,107.1z"/>
<path d="M58.8,74.6v1.9h-1.5v2.9h-2.4v-2.9h-5.4v-1.7l3.7-8.4l2.1,0.8L52,74.6h2.9l0.2-3.2h2.1v3.2H58.8z"/>
<path d="M68.2,68.1c0.9,1.5,1.3,3.2,1.2,4.9c0.1,1.7-0.3,3.5-1.2,5c-1.4,1.9-4,2.3-5.9,0.9c-0.3-0.3-0.6-0.6-0.9-0.9
	c-0.9-1.5-1.3-3.3-1.2-5c-0.1-1.7,0.3-3.4,1.2-4.9c1.4-1.9,4.1-2.3,6-0.9C67.6,67.5,67.9,67.8,68.2,68.1z M63.2,69.3
	c-0.4,1.2-0.6,2.4-0.5,3.7c-0.1,1.3,0.1,2.5,0.5,3.7c0.3,0.9,1.3,1.3,2.2,1c0.5-0.2,0.8-0.5,1-1c0.4-1.2,0.6-2.5,0.5-3.7
	c0.1-1.3-0.1-2.5-0.5-3.7c-0.3-0.9-1.3-1.3-2.2-1C63.7,68.5,63.4,68.8,63.2,69.3L63.2,69.3z"/>
<path d="M57.8,30.6H53v3.2c0.6-0.3,1.3-0.5,1.9-0.5c0.7,0,1.3,0.2,1.9,0.5c0.6,0.3,1,0.8,1.3,1.4c0.3,0.7,0.5,1.4,0.5,2.2
	S58.4,39,58,39.7s-1,1.2-1.7,1.6c-0.8,0.4-1.6,0.6-2.5,0.6c-0.8,0-1.5-0.1-2.2-0.5c-0.7-0.3-1.3-0.8-1.8-1.3l1.4-1.3
	c0.6,0.8,1.6,1.2,2.6,1.2c0.6,0,1.3-0.2,1.7-0.7s0.7-1.2,0.6-1.9c0-1.6-0.7-2.4-2-2.4c-0.3,0-0.6,0-0.8,0.1
	c-0.3,0.1-0.6,0.2-0.8,0.3h-1.7v-6.7h7.4L57.8,30.6z"/>
<path d="M68.2,30.3c0.9,1.5,1.3,3.2,1.2,4.9c0.1,1.7-0.3,3.5-1.2,5c-1.4,1.9-4,2.3-5.9,0.9c-0.3-0.3-0.6-0.6-0.9-0.9
	c-0.9-1.5-1.3-3.2-1.2-5c-0.1-1.7,0.3-3.4,1.2-4.9c1.4-1.9,4.1-2.3,6-0.9C67.6,29.7,67.9,30,68.2,30.3z M63.2,31.5
	c-0.4,1.2-0.6,2.4-0.5,3.7c-0.1,1.3,0.1,2.5,0.5,3.7c0.3,0.9,1.3,1.3,2.2,1c0.5-0.2,0.8-0.5,1-1c0.4-1.2,0.6-2.5,0.5-3.7
	c0.1-1.3-0.1-2.5-0.5-3.7c-0.3-0.9-1.3-1.3-2.2-1C63.7,30.7,63.3,31.1,63.2,31.5L63.2,31.5z"/>
<line class="st1" x1="77.4" y1="190.2" x2="456.2" y2="190.2"/>
<line class="st0" x1="77.4" y1="205.6" x2="456.2" y2="205.6"/>
<line class="st1" x1="77.4" y1="152.1" x2="456.2" y2="152.1"/>
<line class="st1" x1="77.4" y1="114" x2="456.2" y2="114"/>
<line class="st1" x1="77.4" y1="75.9" x2="456.2" y2="75.9"/>
<line class="st1" x1="77.4" y1="37.8" x2="456.2" y2="37.8"/>
<line class="st1" x1="172" y1="205.6" x2="172" y2="15.5"/>
<line class="st1" x1="266.6" y1="205.6" x2="266.6" y2="15.5"/>
<line class="st1" x1="361.3" y1="205.6" x2="361.3" y2="15.5"/>
<line class="st1" x1="455.9" y1="205.6" x2="455.9" y2="15.5"/>
<path d="M129,218.1l-2.9,15.9h-4l-2.4-12.7l-2.4,12.7h-3.8l-2.9-15.9h3l2,13.5l2.6-13.5h3.2l2.6,13.5l2.2-13.5H129z"/>
<path d="M137.1,218.5V234h-2.9v-12.5l-3.4,2.1l-1.3-2l5-3.1H137.1z"/>
<path d="M222.8,218.1l-2.9,15.9h-4l-2.4-12.7L211,234h-3.8l-2.9-15.9h3l2,13.5l2.6-13.5h3.2l2.6,13.5l2.2-13.5H222.8z"/>
<path d="M231.2,218.8c1.4,0.7,2.4,2.2,2.3,3.8c0,0.9-0.2,1.7-0.6,2.5c-0.5,1-1.1,1.9-1.9,2.7c-0.9,1-2.2,2.3-3.8,3.9h6.6l-0.3,2.3
	h-9.6v-2.2c2-2,3.4-3.5,4.2-4.4c0.7-0.7,1.3-1.6,1.8-2.5c0.4-0.7,0.5-1.4,0.5-2.1c0.1-1.1-0.8-2.2-1.9-2.2c-0.1,0-0.2,0-0.3,0
	c-0.6,0-1.1,0.1-1.6,0.4c-0.5,0.3-1,0.8-1.4,1.2l-1.8-1.4c1.2-1.6,3-2.6,5-2.5C229.4,218.2,230.3,218.4,231.2,218.8z"/>
<path d="M317.3,218.1l-2.9,15.9h-4l-2.4-12.7l-2.4,12.7h-3.8l-2.9-15.9h3l2,13.5l2.6-13.5h3.2l2.5,13.5l2.2-13.5H317.3z"/>
<path d="M325.7,218.8c0.7,0.3,1.3,0.8,1.7,1.4c0.4,0.6,0.6,1.3,0.6,2c0,0.8-0.3,1.7-0.8,2.3c-0.6,0.7-1.4,1.1-2.2,1.3
	c0.9,0.1,1.8,0.4,2.5,1.1c0.7,0.7,1.1,1.7,1,2.7c0,0.9-0.2,1.7-0.7,2.4s-1.1,1.3-1.9,1.7c-0.9,0.4-2,0.7-3,0.6
	c-1.9,0.1-3.8-0.7-5-2.2l1.6-1.6c0.4,0.5,1,0.8,1.5,1.1c0.5,0.2,1.1,0.4,1.7,0.4c0.7,0,1.5-0.2,2-0.7s0.8-1.2,0.8-1.9
	c0.1-0.7-0.2-1.4-0.7-1.9c-0.6-0.4-1.3-0.6-2.1-0.6h-1.2l0.3-2.1h0.8c0.7,0,1.3-0.2,1.8-0.6c0.5-0.4,0.7-1.1,0.7-1.7
	c0-0.6-0.2-1.1-0.6-1.5c-0.5-0.4-1.1-0.6-1.7-0.5c-0.6,0-1.1,0.1-1.6,0.3c-0.5,0.3-1,0.6-1.5,1l-1.5-1.6c1.3-1.3,3-2,4.9-2
	C324,218.2,324.9,218.4,325.7,218.8z"/>
<path d="M411.6,218.1l-2.9,15.9h-4l-2.4-12.7l-2.4,12.7H396l-2.9-15.9h3l2,13.5l2.6-13.5h3.3l2.5,13.5l2.2-13.5H411.6z"/>
<path d="M423.8,228.2v2.2H422v3.5h-2.9v-3.5h-6.6v-2l4.5-10.2l2.5,0.9l-4,9h3.5l0.3-3.9h2.6v3.9L423.8,228.2z"/>
<g>
	<g>
		<g>
			<defs>
				<rect id="SVGID_1_" y="124.1" width="455.9" height="35.7"/>
			</defs>
			<clipPath id="SVGID_2_">
				<use xlink:href="#SVGID_1_"  style="overflow:visible;"/>
			</clipPath>
			<g class="st2">
				<line class="st3" x1="5.6" y1="110.8" x2="-47" y2="163.4"/>
				<line class="st3" x1="10.9" y1="110.8" x2="-41.7" y2="163.4"/>
				<line class="st3" x1="16.2" y1="110.8" x2="-36.4" y2="163.4"/>
				<line class="st3" x1="21.5" y1="110.8" x2="-31.1" y2="163.4"/>
				<line class="st3" x1="26.8" y1="110.8" x2="-25.8" y2="163.4"/>
				<line class="st3" x1="32.1" y1="110.8" x2="-20.5" y2="163.4"/>
				<line class="st3" x1="37.4" y1="110.8" x2="-15.2" y2="163.4"/>
				<line class="st3" x1="42.7" y1="110.8" x2="-9.9" y2="163.4"/>
				<line class="st3" x1="48" y1="110.8" x2="-4.6" y2="163.4"/>
				<line class="st3" x1="53.3" y1="110.8" x2="0.7" y2="163.4"/>
				<line class="st3" x1="58.6" y1="110.8" x2="6" y2="163.4"/>
				<line class="st3" x1="63.9" y1="110.8" x2="11.3" y2="163.4"/>
				<line class="st3" x1="69.2" y1="110.8" x2="16.6" y2="163.4"/>
				<line class="st3" x1="74.5" y1="110.8" x2="21.9" y2="163.4"/>
				<line class="st3" x1="79.8" y1="110.8" x2="27.2" y2="163.4"/>
				<line class="st3" x1="85.1" y1="110.8" x2="32.5" y2="163.4"/>
				<line class="st3" x1="90.4" y1="110.8" x2="37.8" y2="163.4"/>
				<line class="st3" x1="95.7" y1="110.8" x2="43.1" y2="163.4"/>
				<line class="st3" x1="101" y1="110.8" x2="48.4" y2="163.4"/>
				<line class="st3" x1="106.3" y1="110.8" x2="53.7" y2="163.4"/>
				<line class="st3" x1="111.6" y1="110.8" x2="59" y2="163.4"/>
				<line class="st3" x1="116.9" y1="110.8" x2="64.3" y2="163.4"/>
				<line class="st3" x1="122.2" y1="110.8" x2="69.6" y2="163.4"/>
				<line class="st3" x1="127.5" y1="110.8" x2="74.9" y2="163.4"/>
				<line class="st3" x1="132.8" y1="110.8" x2="80.2" y2="163.4"/>
				<line class="st3" x1="138.1" y1="110.8" x2="85.5" y2="163.4"/>
				<line class="st3" x1="143.4" y1="110.8" x2="90.8" y2="163.4"/>
				<line class="st3" x1="148.7" y1="110.8" x2="96.1" y2="163.4"/>
				<line class="st3" x1="154" y1="110.8" x2="101.4" y2="163.4"/>
				<line class="st3" x1="159.3" y1="110.8" x2="106.7" y2="163.4"/>
				<line class="st3" x1="164.6" y1="110.8" x2="112" y2="163.4"/>
				<line class="st3" x1="169.9" y1="110.8" x2="117.3" y2="163.4"/>
				<line class="st3" x1="175.2" y1="110.8" x2="122.6" y2="163.4"/>
				<line class="st3" x1="180.5" y1="110.8" x2="127.9" y2="163.4"/>
				<line class="st3" x1="185.8" y1="110.8" x2="133.2" y2="163.4"/>
				<line class="st3" x1="191.1" y1="110.8" x2="138.4" y2="163.4"/>
				<line class="st3" x1="196.4" y1="110.8" x2="143.7" y2="163.4"/>
				<line class="st3" x1="201.7" y1="110.8" x2="149" y2="163.4"/>
				<line class="st3" x1="207" y1="110.8" x2="154.3" y2="163.4"/>
				<line class="st3" x1="212.3" y1="110.8" x2="159.6" y2="163.4"/>
				<line class="st3" x1="217.6" y1="110.8" x2="164.9" y2="163.4"/>
				<line class="st3" x1="222.9" y1="110.8" x2="170.2" y2="163.4"/>
				<line class="st3" x1="228.2" y1="110.8" x2="175.5" y2="163.4"/>
				<line class="st3" x1="233.5" y1="110.8" x2="180.8" y2="163.4"/>
				<line class="st3" x1="238.8" y1="110.8" x2="186.1" y2="163.4"/>
				<line class="st3" x1="244.1" y1="110.8" x2="191.4" y2="163.4"/>
				<line class="st3" x1="249.4" y1="110.8" x2="196.7" y2="163.4"/>
				<line class="st3" x1="254.7" y1="110.8" x2="202" y2="163.4"/>
				<line class="st3" x1="260" y1="110.8" x2="207.3" y2="163.4"/>
				<line class="st3" x1="265.3" y1="110.8" x2="212.6" y2="163.4"/>
				<line class="st3" x1="270.6" y1="110.8" x2="217.9" y2="163.4"/>
				<line class="st3" x1="275.9" y1="110.8" x2="223.2" y2="163.4"/>
				<line class="st3" x1="281.2" y1="110.8" x2="228.5" y2="163.4"/>
				<line class="st3" x1="286.5" y1="110.8" x2="233.8" y2="163.4"/>
				<line class="st3" x1="291.8" y1="110.8" x2="239.1" y2="163.4"/>
				<line class="st3" x1="297.1" y1="110.8" x2="244.4" y2="163.4"/>
				<line class="st3" x1="302.4" y1="110.8" x2="249.7" y2="163.4"/>
				<line class="st3" x1="307.7" y1="110.8" x2="255" y2="163.4"/>
				<line class="st3" x1="313" y1="110.8" x2="260.3" y2="163.4"/>
				<line class="st3" x1="318.3" y1="110.8" x2="265.6" y2="163.4"/>
				<line class="st3" x1="323.6" y1="110.8" x2="270.9" y2="163.4"/>
				<line class="st3" x1="328.9" y1="110.8" x2="276.2" y2="163.4"/>
				<line class="st3" x1="334.2" y1="110.8" x2="281.5" y2="163.4"/>
				<line class="st3" x1="339.5" y1="110.8" x2="286.8" y2="163.4"/>
				<line class="st3" x1="344.8" y1="110.8" x2="292.1" y2="163.4"/>
				<line class="st3" x1="350.1" y1="110.8" x2="297.4" y2="163.4"/>
				<line class="st3" x1="355.4" y1="110.8" x2="302.7" y2="163.4"/>
				<line class="st3" x1="360.7" y1="110.8" x2="308" y2="163.4"/>
				<line class="st3" x1="366" y1="110.8" x2="313.3" y2="163.4"/>
				<line class="st3" x1="371.3" y1="110.8" x2="318.6" y2="163.4"/>
				<line class="st3" x1="376.6" y1="110.8" x2="323.9" y2="163.4"/>
				<line class="st3" x1="381.9" y1="110.8" x2="329.2" y2="163.4"/>
				<line class="st3" x1="387.2" y1="110.8" x2="334.5" y2="163.4"/>
				<line class="st3" x1="392.5" y1="110.8" x2="339.8" y2="163.4"/>
				<line class="st3" x1="397.8" y1="110.8" x2="345.1" y2="163.4"/>
				<line class="st3" x1="403.1" y1="110.8" x2="350.4" y2="163.4"/>
				<line class="st3" x1="408.4" y1="110.8" x2="355.7" y2="163.4"/>
				<line class="st3" x1="413.7" y1="110.8" x2="361" y2="163.4"/>
				<line class="st3" x1="419" y1="110.8" x2="366.3" y2="163.4"/>
				<line class="st3" x1="424.3" y1="110.8" x2="371.6" y2="163.4"/>
				<line class="st3" x1="429.6" y1="110.8" x2="376.9" y2="163.4"/>
				<line class="st3" x1="434.9" y1="110.8" x2="382.2" y2="163.4"/>
				<line class="st3" x1="440.2" y1="110.8" x2="387.5" y2="163.4"/>
				<line class="st3" x1="445.5" y1="110.8" x2="392.8" y2="163.4"/>
				<line class="st3" x1="450.8" y1="110.8" x2="398.1" y2="163.4"/>
				<line class="st3" x1="456.1" y1="110.8" x2="403.4" y2="163.4"/>
				<line class="st3" x1="461.4" y1="110.8" x2="408.7" y2="163.4"/>
				<line class="st3" x1="466.7" y1="110.8" x2="414" y2="163.4"/>
				<line class="st3" x1="472" y1="110.8" x2="419.3" y2="163.4"/>
				<line class="st3" x1="477.3" y1="110.8" x2="424.6" y2="163.4"/>
				<line class="st3" x1="482.6" y1="110.8" x2="429.9" y2="163.4"/>
				<line class="st3" x1="487.9" y1="110.8" x2="435.2" y2="163.4"/>
				<line class="st3" x1="493.2" y1="110.8" x2="440.5" y2="163.4"/>
				<line class="st3" x1="498.5" y1="110.8" x2="445.8" y2="163.4"/>
				<line class="st3" x1="503.8" y1="110.8" x2="451.1" y2="163.4"/>
				<line class="st3" x1="509.1" y1="110.8" x2="456.4" y2="163.4"/>
				<line class="st3" x1="514.4" y1="110.8" x2="461.7" y2="163.4"/>
				<line class="st3" x1="519.7" y1="110.8" x2="467" y2="163.4"/>
				<line class="st3" x1="525" y1="110.8" x2="472.3" y2="163.4"/>
				<line class="st3" x1="530.3" y1="110.8" x2="477.6" y2="163.4"/>
			</g>
		</g>
	</g>
</g>
<path d="M22.5,16.2c-0.5,0.7-0.9,1.4-1.3,2.2c-0.3,0.7-0.6,1.4-0.8,2.2c-0.2,0.9-0.3,1.9-0.3,2.9s0.1,1.9,0.3,2.9
	c0.2,0.8,0.4,1.5,0.8,2.2c0.4,0.8,0.8,1.5,1.3,2.2l-0.9,0.6c-0.7-1-1.2-1.8-1.6-2.5s-0.8-1.5-1-2.3c-0.3-1-0.4-2.1-0.4-3.1
	c0-1.1,0.1-2.1,0.4-3.1c0.2-0.8,0.6-1.6,1-2.3c0.4-0.7,0.9-1.5,1.6-2.5L22.5,16.2z"/>
<path d="M28.4,18.9c0.5,0.5,0.8,1.3,0.7,2c0,0.7-0.2,1.5-0.7,2c-1.1,1-2.7,1-3.7,0c-0.5-0.5-0.8-1.3-0.7-2c0-0.7,0.2-1.5,0.7-2
	C25.7,17.9,27.3,17.9,28.4,18.9z M25.5,19.6c-0.4,0.8-0.4,1.7,0,2.5c0.2,0.3,0.6,0.5,1,0.5c0.9,0,1.3-0.6,1.3-1.7
	c0-0.4-0.1-0.8-0.3-1.2c-0.2-0.3-0.6-0.5-1-0.5C26.1,19.1,25.7,19.3,25.5,19.6L25.5,19.6z M33,17.6l1,0.7l-7.4,11.2l-1-0.7L33,17.6z
	 M35,24.5c1,1.1,1,2.8,0,3.9c-1.1,1-2.7,1-3.8,0c-1-1.1-1-2.8,0-3.9C32.3,23.6,33.9,23.6,35,24.5z M32.1,25.3
	c-0.2,0.4-0.3,0.8-0.3,1.2c0,0.4,0.1,0.8,0.3,1.2c0.2,0.3,0.6,0.5,1,0.5c0.9,0,1.3-0.6,1.3-1.7c0-0.4-0.1-0.8-0.3-1.2
	c-0.5-0.6-1.3-0.6-1.8-0.2C32.2,25.2,32.2,25.2,32.1,25.3L32.1,25.3z"/>
<path d="M39.6,18c0.4,0.7,0.8,1.5,1,2.3c0.3,1,0.4,2.1,0.4,3.1c0,1.1-0.1,2.1-0.4,3.1c-0.2,0.8-0.6,1.6-1,2.3
	c-0.4,0.7-0.9,1.5-1.6,2.5l-1-0.7c0.5-0.7,0.9-1.4,1.3-2.2c0.3-0.7,0.6-1.5,0.8-2.2c0.2-0.9,0.3-1.9,0.3-2.9s-0.1-1.9-0.3-2.9
	c-0.2-0.8-0.4-1.5-0.8-2.2c-0.4-0.8-0.8-1.5-1.3-2.2l0.9-0.6C38.6,16.5,39.2,17.3,39.6,18z"/>
<g>
	<path d="M8.2,148.6l8.9,8.9l-1.8,1.8l-8.9-8.9L8.2,148.6z"/>
	<path d="M15.3,140.1l9.6,9.6l-1.5,1.5l-1-0.8c0.1,0.5,0.1,1.1,0,1.6c-0.2,0.6-0.5,1.1-0.9,1.5c-0.8,0.8-1.9,1.3-2.9,1
		c-1.3-0.3-2.4-1.1-3.3-2c-0.7-0.7-1.2-1.4-1.6-2.2c-0.3-0.7-0.4-1.6-0.3-2.3c0.3-1.7,1.8-2.9,3.4-2.8l-3.5-3.5L15.3,140.1z
		 M21.4,150.6c0.1-0.5,0.1-0.9-0.1-1.3l-3.1-3.1c-0.4,0-0.8,0-1.2,0c-0.3,0.1-0.7,0.3-0.9,0.5c-0.4,0.4-0.6,1-0.5,1.7
		c0.3,0.9,0.8,1.6,1.4,2.2c0.6,0.6,1.4,1.2,2.2,1.6c0.6,0.2,1.2,0,1.6-0.4C21.1,151.3,21.2,151,21.4,150.6L21.4,150.6z"/>
	<path d="M29.5,139.2l-4.2,4.2c0.5,0.5,1.2,0.8,1.9,0.9c0.6,0,1.3-0.3,1.6-0.8c0.3-0.3,0.6-0.6,0.8-1s0.3-0.9,0.4-1.4l1.7,0.3
		c-0.1,1.3-0.7,2.4-1.7,3.4c-0.9,0.9-2.1,1.5-3.4,1.5c-1.4-0.2-2.5-0.8-3.5-1.8c-0.7-0.7-1.2-1.4-1.5-2.3c-0.3-0.7-0.4-1.6-0.2-2.3
		c0.5-2.1,2.3-3.4,4.2-3.4c1.3,0.1,2.5,0.8,3.3,1.8C29,138.5,29.3,138.8,29.5,139.2z M26.8,139.6c-1.2-1.2-2.3-1.3-3.1-0.4
		c-0.4,0.4-0.7,0.9-0.5,1.5c0.1,0.7,0.5,1.3,1.1,1.9L26.8,139.6L26.8,139.6z"/>
	<path d="M37.8,134.2c0.2,0,0.4,0,0.7-0.1l0.7,1.5c-0.4,0.4-0.8,0.6-1.3,0.7c-0.5,0.1-0.9,0.1-1.3-0.1c0.1,0.5,0.1,1.1-0.1,1.7
		s-0.5,1.1-0.9,1.5c-0.6,0.6-1.4,1-2.2,1c-0.8,0-1.6-0.4-2.2-1c-0.7-0.7-1-1.6-0.9-2.4c0.3-1.1,0.8-2.2,1.8-2.9l0.9-0.9l-0.4-0.4
		c-0.3-0.3-0.8-0.6-1.2-0.6c-0.5,0.1-0.9,0.3-1.3,0.7c-0.6,0.6-1.2,1.4-1.5,2.3l-1.5-0.7c0.5-1.1,1.2-2.2,2-2.9
		c1.8-1.8,3.4-1.9,5-0.3l2.8,2.8C37.3,134.1,37.6,134.2,37.8,134.2z M35.5,135.4l-1.4-1.4l-0.7,0.7c-1.1,1.1-1.2,2-0.4,2.7
		c0.3,0.3,0.7,0.5,1,0.6c0.4,0,0.8-0.2,1-0.4C35.6,137,35.7,136.1,35.5,135.4z"/>
	<path d="M40.9,133.1c-0.7-0.1-1.3-0.3-1.8-0.8l-8-8l1.5-1.9l8.1,8.1c0.3,0.3,0.6,0.4,0.9,0.1c0.1-0.1,0.3-0.3,0.3-0.5l1.6,0.8
		c-0.2,0.6-0.5,0.9-0.9,1.3C42.1,132.8,41.7,133.1,40.9,133.1z"/>
</g>
</svg>
