<svg id="Layer_2" data-name="Layer 2" xmlns="http://www.w3.org/2000/svg" viewBox="0 0 480 270"><defs><style>.cls-1,.cls-3,.cls-4{fill:none;stroke:#1d1d1b;stroke-miterlimit:10;}.cls-1{stroke-linecap:round;stroke-width:3px;}.cls-2{fill:#1d1d1b;}.cls-4{stroke-width:0.25px;}</style></defs><title>Weight Monthly (pathed)</title><path class="cls-1" d="M108.17,201.49s25.91-29,40.76-26.18S178.12,186.9,187.13,186s29.26-16.66,42.48-15,18.9,5.14,25.32,2.15C279.81,161.55,293.73,48,311.48,48c17.24,0,36.77,109.24,58,113.39,7.45,1.45,18.05-.83,65.27-29.16"/><circle class="cls-2" cx="108.37" cy="201.55" r="2.41"/><circle class="cls-2" cx="150.29" cy="186.14" r="2.41"/><circle class="cls-2" cx="188.1" cy="170.83" r="2.41"/><circle class="cls-2" cx="229.42" cy="186.14" r="2.41"/><circle class="cls-2" cx="229.42" cy="171.02" r="2.41"/><circle class="cls-2" cx="229.42" cy="155.91" r="2.41"/><circle class="cls-2" cx="269.05" cy="124.76" r="2.41"/><circle class="cls-2" cx="351.85" cy="170.83" r="2.41" transform="translate(-12.47 28.52) rotate(-4.56)"/><circle class="cls-2" cx="351.85" cy="109.17" r="2.41" transform="translate(-7.57 28.33) rotate(-4.56)"/><circle class="cls-2" cx="311.48" cy="46.03" r="2.41" transform="translate(-2.67 24.92) rotate(-4.56)"/><circle class="cls-2" cx="392.95" cy="139.67" r="2.41" transform="translate(-9.86 31.69) rotate(-4.56)"/><circle class="cls-2" cx="434.75" cy="124.76" r="2.41" transform="translate(-8.55 34.97) rotate(-4.56)"/><circle class="cls-2" cx="434.75" cy="139.67" r="2.41" transform="translate(-9.73 35.02) rotate(-4.56)"/><circle class="cls-2" cx="392.95" cy="170.83" r="2.41" transform="translate(-12.34 31.79) rotate(-4.56)"/><circle class="cls-2" cx="269.05" cy="186.14" r="2.41"/><circle class="cls-2" cx="188.1" cy="201.49" r="2.41"/><circle class="cls-2" cx="150.29" cy="201.49" r="2.41"/><circle class="cls-2" cx="150.29" cy="140.42" r="2.41"/><line class="cls-3" x1="77.38" y1="26.75" x2="77.38" y2="216.87"/><path d="M22.52,27.39a20.57,20.57,0,0,0-1.32,2.2,9.58,9.58,0,0,0-.77,2.2,13.08,13.08,0,0,0-.28,2.88,13,13,0,0,0,.28,2.86,9.89,9.89,0,0,0,.77,2.22A18.65,18.65,0,0,0,22.52,42l-.93.64q-1.06-1.5-1.62-2.47a10.17,10.17,0,0,1-1-2.32,11.25,11.25,0,0,1-.39-3.13A11.25,11.25,0,0,1,19,31.55a10.18,10.18,0,0,1,1-2.32q.57-1,1.62-2.47Z"/><path d="M26.15,28.27v12H24.68V28.45ZM31,31.84l-3.1,3.73,3.46,4.7H29.59l-3.34-4.61,3.1-3.82Z"/><path d="M39.56,32.23a4.54,4.54,0,0,1-1.06.21q-.58,0-1.41,0a2.23,2.23,0,0,1,1.49,2.13,2.68,2.68,0,0,1-.86,2.06,3.33,3.33,0,0,1-2.35.8,3.46,3.46,0,0,1-1.07-.16.91.91,0,0,0-.3.34,1,1,0,0,0-.11.44q0,.69,1.1.69h1.34a3.54,3.54,0,0,1,1.5.3,2.43,2.43,0,0,1,1,.83,2.08,2.08,0,0,1,.36,1.2,2.14,2.14,0,0,1-1,1.9,5.37,5.37,0,0,1-2.94.66,6.66,6.66,0,0,1-2.15-.28A2,2,0,0,1,32,42.56a2.77,2.77,0,0,1-.34-1.44H33a1.47,1.47,0,0,0,.19.81,1.2,1.2,0,0,0,.69.45,5.06,5.06,0,0,0,1.41.15,4,4,0,0,0,1.9-.33,1.07,1.07,0,0,0,.57-1,1,1,0,0,0-.45-.9A2.21,2.21,0,0,0,36,40H34.7a2.5,2.5,0,0,1-1.62-.46,1.42,1.42,0,0,1-.55-1.14,1.49,1.49,0,0,1,.24-.8,2.35,2.35,0,0,1,.69-.69,2.65,2.65,0,0,1-1.08-1A2.62,2.62,0,0,1,32,34.59a2.79,2.79,0,0,1,.42-1.52,2.89,2.89,0,0,1,1.17-1,3.62,3.62,0,0,1,1.66-.38,11.69,11.69,0,0,0,1.66-.07A5.74,5.74,0,0,0,38,31.34q.44-.15,1.08-.44Zm-5.58,1A2.29,2.29,0,0,0,34,36a1.67,1.67,0,0,0,1.31.52,1.69,1.69,0,0,0,1.32-.5,2,2,0,0,0,.46-1.42A1.82,1.82,0,0,0,34,33.23Z"/><path d="M42.75,29.23a10.2,10.2,0,0,1,1,2.32,11.27,11.27,0,0,1,.39,3.13,11.27,11.27,0,0,1-.39,3.13,10.19,10.19,0,0,1-1,2.32q-.57,1-1.62,2.47L40.2,42a18.78,18.78,0,0,0,1.32-2.2,9.94,9.94,0,0,0,.77-2.22,13,13,0,0,0,.28-2.86,13.12,13.12,0,0,0-.28-2.88,9.63,9.63,0,0,0-.77-2.2,20.73,20.73,0,0,0-1.32-2.2l.93-.64Q42.18,28.26,42.75,29.23Z"/><path d="M63.1,199.68v1.67H61.73V204H59.6v-2.62H54.74v-1.5l3.33-7.55,1.85.7L57,199.68h2.62l.22-2.87h1.89v2.87Z"/><path d="M70.82,194.14H66.54V197a3.84,3.84,0,0,1,1.73-.43A3.28,3.28,0,0,1,70,197a3,3,0,0,1,1.16,1.28,4.36,4.36,0,0,1,.42,2,4,4,0,0,1-.53,2.07,3.61,3.61,0,0,1-1.5,1.4,4.81,4.81,0,0,1-2.24.5,4.63,4.63,0,0,1-2-.42,5.12,5.12,0,0,1-1.59-1.2l1.24-1.16a3,3,0,0,0,2.31,1.09,2,2,0,0,0,1.52-.59,2.41,2.41,0,0,0,.55-1.7q0-2.12-1.84-2.12a2.74,2.74,0,0,0-.73.09,4.22,4.22,0,0,0-.75.3H64.45v-6h6.63Z"/><path d="M41.61,161.9v1.67H40.24v2.62H38.11v-2.62H33.25v-1.5l3.33-7.55,1.85.7-2.92,6.68h2.62l.22-2.87h1.89v2.87Z"/><path d="M49,154.75v1.53l-4.23,10.13-2-.65,4-9.33H41.9v-1.68Z"/><path d="M52.38,164.09a1.36,1.36,0,0,1,0,1.95,1.34,1.34,0,0,1-1,.41,1.3,1.3,0,0,1-1-.41,1.4,1.4,0,0,1,0-1.95,1.3,1.3,0,0,1,1-.4A1.36,1.36,0,0,1,52.38,164.09Z"/><path d="M61.08,156.36H56.8v2.84a3.84,3.84,0,0,1,1.73-.43,3.28,3.28,0,0,1,1.7.44,3,3,0,0,1,1.16,1.28,4.36,4.36,0,0,1,.42,2,4,4,0,0,1-.53,2.07,3.61,3.61,0,0,1-1.5,1.4,4.81,4.81,0,0,1-2.24.5,4.63,4.63,0,0,1-2-.42,5.12,5.12,0,0,1-1.59-1.2l1.24-1.16a3,3,0,0,0,2.31,1.09,2,2,0,0,0,1.52-.59,2.41,2.41,0,0,0,.55-1.7q0-2.12-1.84-2.12a2.74,2.74,0,0,0-.73.09,4.22,4.22,0,0,0-.75.3H54.7v-6h6.63Z"/><path d="M70.37,156.07a9.85,9.85,0,0,1,0,8.83,3.8,3.8,0,0,1-6.1,0,9.85,9.85,0,0,1,0-8.83,3.81,3.81,0,0,1,6.1,0Zm-4.46,1.1a8.76,8.76,0,0,0-.44,3.31,8.89,8.89,0,0,0,.44,3.33,1.5,1.5,0,0,0,2.82,0,8.9,8.9,0,0,0,.44-3.34,8.76,8.76,0,0,0-.44-3.31,1.51,1.51,0,0,0-2.82,0Z"/><path d="M61.08,118.58H56.8v2.84a3.84,3.84,0,0,1,1.73-.43,3.28,3.28,0,0,1,1.7.44,3,3,0,0,1,1.16,1.28,4.36,4.36,0,0,1,.42,2,4,4,0,0,1-.53,2.07,3.61,3.61,0,0,1-1.5,1.4,4.81,4.81,0,0,1-2.24.5,4.63,4.63,0,0,1-2-.42,5.12,5.12,0,0,1-1.59-1.2l1.24-1.16A3,3,0,0,0,57.49,127a2,2,0,0,0,1.52-.59,2.41,2.41,0,0,0,.55-1.7q0-2.12-1.84-2.12a2.74,2.74,0,0,0-.73.09,4.22,4.22,0,0,0-.75.3H54.71v-6h6.63Z"/><path d="M70.37,118.29a9.85,9.85,0,0,1,0,8.83,3.8,3.8,0,0,1-6.1,0,9.85,9.85,0,0,1,0-8.83,3.81,3.81,0,0,1,6.1,0Zm-4.46,1.1a8.76,8.76,0,0,0-.44,3.31,8.89,8.89,0,0,0,.44,3.33,1.5,1.5,0,0,0,2.82,0,8.9,8.9,0,0,0,.44-3.34,8.76,8.76,0,0,0-.44-3.31,1.51,1.51,0,0,0-2.82,0Z"/><path d="M39.59,80.8H35.31v2.84A3.84,3.84,0,0,1,37,83.21a3.28,3.28,0,0,1,1.7.44,3,3,0,0,1,1.16,1.28,4.36,4.36,0,0,1,.42,2A4,4,0,0,1,39.8,89a3.61,3.61,0,0,1-1.5,1.4,4.81,4.81,0,0,1-2.24.5,4.63,4.63,0,0,1-2-.42,5.12,5.12,0,0,1-1.59-1.2l1.24-1.16A3,3,0,0,0,36,89.2a2,2,0,0,0,1.52-.59,2.41,2.41,0,0,0,.55-1.7q0-2.12-1.84-2.12a2.74,2.74,0,0,0-.73.09,4.22,4.22,0,0,0-.75.3H33.22v-6h6.63Z"/><path d="M46.71,79.41a3,3,0,0,1,1.73,2.79A4.36,4.36,0,0,1,48,84.06a8.54,8.54,0,0,1-1.39,2q-1,1.09-2.84,2.87h4.9l-.24,1.72H41.33V89q2.18-2.21,3.12-3.27a9.85,9.85,0,0,0,1.34-1.82,3.33,3.33,0,0,0,.4-1.57,1.54,1.54,0,0,0-1.65-1.67,2.35,2.35,0,0,0-1.16.28,4,4,0,0,0-1,.93L41,80.85A4.48,4.48,0,0,1,44.71,79,4.39,4.39,0,0,1,46.71,79.41Z"/><path d="M52.38,88.53a1.36,1.36,0,0,1,0,1.95,1.34,1.34,0,0,1-1,.41,1.3,1.3,0,0,1-1-.41,1.4,1.4,0,0,1,0-1.95,1.3,1.3,0,0,1,1-.4A1.36,1.36,0,0,1,52.38,88.53Z"/><path d="M61.08,80.8H56.8v2.84a3.84,3.84,0,0,1,1.73-.43,3.28,3.28,0,0,1,1.7.44,3,3,0,0,1,1.16,1.28,4.36,4.36,0,0,1,.42,2A4,4,0,0,1,61.28,89a3.61,3.61,0,0,1-1.5,1.4,4.81,4.81,0,0,1-2.24.5,4.63,4.63,0,0,1-2-.42,5.12,5.12,0,0,1-1.59-1.2l1.24-1.16a3,3,0,0,0,2.31,1.09A2,2,0,0,0,59,88.6a2.41,2.41,0,0,0,.55-1.7q0-2.12-1.84-2.12a2.74,2.74,0,0,0-.73.09,4.22,4.22,0,0,0-.75.3H54.71v-6h6.63Z"/><path d="M70.37,80.51a7.78,7.78,0,0,1,1,4.4,7.86,7.86,0,0,1-1,4.43,3.8,3.8,0,0,1-6.1,0,7.85,7.85,0,0,1-1-4.43,7.78,7.78,0,0,1,1-4.4,3.81,3.81,0,0,1,6.1,0Zm-4.46,1.1a8.76,8.76,0,0,0-.44,3.31,8.89,8.89,0,0,0,.44,3.33,1.5,1.5,0,0,0,2.82,0,8.9,8.9,0,0,0,.44-3.34,8.76,8.76,0,0,0-.44-3.31,1.51,1.51,0,0,0-2.82,0Z"/><path d="M62.07,43H57.78v2.84a3.84,3.84,0,0,1,1.73-.43,3.28,3.28,0,0,1,1.7.44,3,3,0,0,1,1.16,1.28,4.36,4.36,0,0,1,.42,2,4,4,0,0,1-.53,2.07,3.61,3.61,0,0,1-1.5,1.4,4.81,4.81,0,0,1-2.24.5,4.63,4.63,0,0,1-2-.42,5.12,5.12,0,0,1-1.59-1.2l1.24-1.16a3,3,0,0,0,2.31,1.09A2,2,0,0,0,60,50.82a2.41,2.41,0,0,0,.55-1.7q0-2.12-1.84-2.12a2.74,2.74,0,0,0-.73.09,4.22,4.22,0,0,0-.75.3H55.69v-6h6.63Z"/><path d="M70.82,43H66.54v2.84a3.84,3.84,0,0,1,1.73-.43,3.28,3.28,0,0,1,1.7.44,3,3,0,0,1,1.16,1.28,4.36,4.36,0,0,1,.42,2A4,4,0,0,1,71,51.2a3.61,3.61,0,0,1-1.5,1.4,4.81,4.81,0,0,1-2.24.5,4.63,4.63,0,0,1-2-.42,5.12,5.12,0,0,1-1.59-1.2l1.24-1.16a3,3,0,0,0,2.31,1.09,2,2,0,0,0,1.52-.59,2.41,2.41,0,0,0,.55-1.7q0-2.12-1.84-2.12a2.74,2.74,0,0,0-.73.09,4.22,4.22,0,0,0-.75.3H64.45v-6h6.63Z"/><line class="cls-4" x1="77.38" y1="201.49" x2="456.16" y2="201.49"/><line class="cls-3" x1="77.38" y1="216.87" x2="456.16" y2="216.87"/><line class="cls-4" x1="77.38" y1="163.37" x2="456.16" y2="163.37"/><line class="cls-4" x1="77.38" y1="125.25" x2="456.16" y2="125.25"/><line class="cls-4" x1="77.38" y1="87.13" x2="456.16" y2="87.13"/><line class="cls-4" x1="77.38" y1="49" x2="456.16" y2="49"/><line class="cls-4" x1="172.01" y1="216.87" x2="172.01" y2="26.75"/><line class="cls-4" x1="266.64" y1="216.87" x2="266.64" y2="26.75"/><line class="cls-4" x1="361.26" y1="216.87" x2="361.26" y2="26.75"/><line class="cls-4" x1="455.89" y1="216.87" x2="455.89" y2="26.75"/><path d="M129,229.35l-2.92,15.89h-4l-2.42-12.67-2.48,12.67h-3.84l-2.87-15.89h3l2,13.48,2.6-13.48h3.22l2.55,13.48,2.21-13.48Z"/><path d="M137.08,229.77v15.48h-2.9V232.73l-3.45,2.09-1.29-2,5-3.08Z"/><path d="M222.75,229.35l-2.92,15.89h-4l-2.42-12.67L211,245.25h-3.84l-2.87-15.89h3l2,13.48,2.6-13.48h3.22l2.55,13.48,2.21-13.48Z"/><path d="M231.18,230.07a4.09,4.09,0,0,1,2.33,3.77,5.89,5.89,0,0,1-.56,2.52,11.54,11.54,0,0,1-1.87,2.68q-1.31,1.47-3.84,3.89h6.62l-.32,2.32H223.9v-2.16q2.94-3,4.22-4.43a13.34,13.34,0,0,0,1.82-2.46,4.5,4.5,0,0,0,.54-2.13,2.08,2.08,0,0,0-2.23-2.25,3.17,3.17,0,0,0-1.58.38,5.37,5.37,0,0,0-1.41,1.25L223.47,232a6.06,6.06,0,0,1,5-2.53A5.94,5.94,0,0,1,231.18,230.07Z"/><path d="M317.34,229.35l-2.92,15.89h-4l-2.42-12.67-2.48,12.67h-3.84l-2.87-15.89h3l2,13.48,2.6-13.48h3.22l2.55,13.48,2.21-13.48Z"/><path d="M325.7,230a3.88,3.88,0,0,1,1.68,1.43,3.65,3.65,0,0,1,.56,2,3.45,3.45,0,0,1-.8,2.33,4.25,4.25,0,0,1-2.21,1.3,4,4,0,0,1,2.53,1.1,3.56,3.56,0,0,1,1,2.67,4.45,4.45,0,0,1-.68,2.42,4.72,4.72,0,0,1-1.94,1.71,6.61,6.61,0,0,1-3,.63,6.15,6.15,0,0,1-5-2.23l1.63-1.56a5.59,5.59,0,0,0,1.54,1.14,3.9,3.9,0,0,0,1.68.36,2.79,2.79,0,0,0,2-.7,2.48,2.48,0,0,0,.75-1.9,2.34,2.34,0,0,0-.7-1.91,3.22,3.22,0,0,0-2.08-.58h-1.22l.34-2.09h.83a2.57,2.57,0,0,0,1.81-.62,2.22,2.22,0,0,0,.68-1.73,1.86,1.86,0,0,0-.62-1.48,2.43,2.43,0,0,0-1.66-.54,3.91,3.91,0,0,0-1.63.33,5.51,5.51,0,0,0-1.47,1l-1.5-1.63a6.85,6.85,0,0,1,4.85-2A6.15,6.15,0,0,1,325.7,230Z"/><path d="M411.63,229.35l-2.92,15.89h-4l-2.42-12.67-2.48,12.67H396l-2.87-15.89h3l2,13.48,2.6-13.48H404l2.55,13.48,2.21-13.48Z"/><path d="M423.84,239.45v2.25H422v3.54H419.1V241.7h-6.58v-2L417,229.47l2.51.94-4,9h3.54l.3-3.89H422v3.89Z"/></svg>