<?xml version="1.0" encoding="utf-8"?>
<!-- Generator: Adobe Illustrator 22.0.0, SVG Export Plug-In . SVG Version: 6.00 Build 0)  -->
<svg version="1.1" id="Layer_2_1_" xmlns="http://www.w3.org/2000/svg" xmlns:xlink="http://www.w3.org/1999/xlink" x="0px" y="0px"
	 viewBox="0 0 480 270" style="enable-background:new 0 0 480 270;" xml:space="preserve">
<style type="text/css">
	.st0{fill:none;stroke:#1D1D1B;stroke-width:3;stroke-linecap:round;stroke-miterlimit:10;}
	.st1{fill:#1D1D1B;}
	.st2{fill:none;stroke:#1D1D1B;stroke-miterlimit:10;}
	.st3{fill:none;stroke:#1D1D1B;stroke-width:0.25;stroke-miterlimit:10;}
	.st4{fill:#FFFFF0;stroke:#000000;stroke-width:2.0044;stroke-miterlimit:10;}
</style>
<title>Scale Charts</title>
<path class="st0" d="M78.3,177.3c0,0,55.8-16.1,70.6-13.2s29.2,11.6,38.2,10.7s29.3-16.7,42.5-15s18.9,5.1,25.3,2.1
	c24.9-11.6,38.8-125.1,56.6-125.1c17.2,0,36.8,109.2,58,113.4c7.5,1.4,18-0.8,65.3-29.2"/>
<circle class="st1" cx="108.4" cy="169.7" r="2.4"/>
<circle class="st1" cx="150.3" cy="174.9" r="2.4"/>
<circle class="st1" cx="188.1" cy="159.6" r="2.4"/>
<circle class="st1" cx="229.4" cy="174.9" r="2.4"/>
<circle class="st1" cx="229.4" cy="159.8" r="2.4"/>
<circle class="st1" cx="229.4" cy="144.7" r="2.4"/>
<circle class="st1" cx="269" cy="113.5" r="2.4"/>
<circle class="st1" cx="351.8" cy="159.6" r="2.4"/>
<circle class="st1" cx="351.9" cy="97.9" r="2.4"/>
<circle class="st1" cx="311.5" cy="34.8" r="2.4"/>
<circle class="st1" cx="392.9" cy="128.4" r="2.4"/>
<circle class="st1" cx="392.9" cy="159.6" r="2.4"/>
<circle class="st1" cx="269" cy="174.9" r="2.4"/>
<circle class="st1" cx="188.1" cy="190.2" r="2.4"/>
<circle class="st1" cx="150.3" cy="190.2" r="2.4"/>
<circle class="st1" cx="150.3" cy="129.2" r="2.4"/>
<line class="st2" x1="77.4" y1="15.5" x2="77.4" y2="205.6"/>
<path d="M19.5,16.2c-0.5,0.7-0.9,1.4-1.3,2.2c-0.3,0.7-0.6,1.4-0.8,2.2c-0.2,0.9-0.3,1.9-0.3,2.9c0,1,0.1,1.9,0.3,2.9
	c0.2,0.8,0.4,1.5,0.8,2.2c0.4,0.8,0.8,1.5,1.3,2.2l-0.9,0.6c-0.7-1-1.2-1.8-1.6-2.5c-0.4-0.7-0.8-1.5-1-2.3c-0.3-1-0.4-2.1-0.4-3.1
	c0-1.1,0.1-2.1,0.4-3.1c0.2-0.8,0.6-1.6,1-2.3c0.4-0.7,0.9-1.5,1.6-2.5L19.5,16.2z"/>
<path d="M23.1,17v12h-1.5V17.2L23.1,17z M28,20.6l-3.1,3.7l3.5,4.7h-1.8l-3.3-4.6l3.1-3.8L28,20.6z"/>
<path d="M36.6,21c-0.3,0.1-0.7,0.2-1.1,0.2c-0.4,0-0.9,0-1.4,0c0.9,0.3,1.5,1.2,1.5,2.1c0,0.8-0.3,1.5-0.9,2.1
	c-0.7,0.6-1.5,0.8-2.3,0.8c-0.4,0-0.7-0.1-1.1-0.2c-0.1,0.1-0.2,0.2-0.3,0.3c-0.1,0.1-0.1,0.3-0.1,0.4c0,0.5,0.4,0.7,1.1,0.7h1.3
	c0.5,0,1,0.1,1.5,0.3c0.4,0.2,0.7,0.5,1,0.8c0.2,0.4,0.4,0.8,0.4,1.2c0,0.8-0.4,1.5-1,1.9c-0.9,0.5-1.9,0.7-2.9,0.7
	c-0.7,0-1.5-0.1-2.1-0.3c-0.4-0.1-0.8-0.4-1.1-0.8c-0.2-0.4-0.4-0.9-0.3-1.4H30c0,0.3,0,0.6,0.2,0.8c0.2,0.2,0.4,0.4,0.7,0.5
	c0.5,0.1,0.9,0.2,1.4,0.1c0.7,0,1.3-0.1,1.9-0.3c0.4-0.2,0.6-0.6,0.6-1c0-0.4-0.1-0.7-0.5-0.9c-0.4-0.2-0.8-0.3-1.2-0.3h-1.4
	c-0.6,0-1.1-0.1-1.6-0.5c-0.4-0.3-0.6-0.7-0.5-1.1c0-0.3,0.1-0.6,0.2-0.8c0.2-0.3,0.4-0.5,0.7-0.7c-0.4-0.2-0.8-0.6-1.1-1
	c-0.2-0.4-0.4-0.8-0.4-1.3c0-0.5,0.1-1.1,0.4-1.5c0.3-0.4,0.7-0.8,1.2-1c0.5-0.3,1.1-0.4,1.7-0.4c0.6,0,1.1,0,1.7-0.1
	c0.4-0.1,0.7-0.2,1.1-0.3c0.3-0.1,0.7-0.2,1.1-0.4L36.6,21z M31,22c-0.6,0.8-0.6,1.9,0,2.8c0.3,0.4,0.8,0.5,1.3,0.5
	c0.5,0,1-0.1,1.3-0.5c0.3-0.4,0.5-0.9,0.5-1.4c0-1-0.8-1.8-1.8-1.9C31.8,21.5,31.4,21.7,31,22z"/>
<path d="M39.8,18c0.4,0.7,0.8,1.5,1,2.3c0.3,1,0.4,2.1,0.4,3.1c0,1.1-0.1,2.1-0.4,3.1c-0.2,0.8-0.6,1.6-1,2.3
	c-0.4,0.7-0.9,1.5-1.6,2.5l-0.9-0.6c0.5-0.7,0.9-1.4,1.3-2.2c0.3-0.7,0.6-1.5,0.8-2.2c0.2-0.9,0.3-1.9,0.3-2.9c0-1-0.1-1.9-0.3-2.9
	c-0.2-0.8-0.4-1.5-0.8-2.2c-0.4-0.8-0.8-1.5-1.3-2.2l0.9-0.6C38.8,16.5,39.4,17.3,39.8,18z"/>
<path d="M60,187.9v1.9h-1.5v2.9h-2.4v-2.9h-5.4v-1.7l3.7-8.4l2.1,0.8l-3.3,7.5h2.9l0.2-3.2h2.1v3.2H60z"/>
<path d="M68.7,181.7h-4.8v3.2c0.6-0.3,1.3-0.5,1.9-0.5c0.7,0,1.3,0.2,1.9,0.5c0.6,0.3,1,0.8,1.3,1.4c0.3,0.7,0.5,1.4,0.5,2.2
	c0,0.8-0.2,1.6-0.6,2.3c-0.4,0.7-1,1.2-1.7,1.6c-0.8,0.4-1.6,0.6-2.5,0.6c-0.8,0-1.5-0.1-2.2-0.5c-0.7-0.3-1.3-0.8-1.8-1.3l1.4-1.3
	c0.6,0.8,1.6,1.2,2.6,1.2c0.6,0,1.3-0.2,1.7-0.7c0.4-0.5,0.7-1.2,0.6-1.9c0-1.6-0.7-2.4-2.1-2.4c-0.3,0-0.6,0-0.8,0.1
	c-0.3,0.1-0.6,0.2-0.8,0.3h-1.7v-6.7h7.4L68.7,181.7z"/>
<path d="M46.9,150.2v1.8h-1.5v2.9H43V152h-5.4v-1.7l3.7-8.4l2.1,0.8l-3.3,7.5H43l0.2-3.2h2.1v3.2L46.9,150.2z"/>
<path d="M55.1,142.2v1.7l-4.7,11.3l-2.2-0.7l4.4-10.5h-5.4v-1.9L55.1,142.2z"/>
<path d="M58.9,152.6c0.6,0.6,0.6,1.6,0,2.2c0,0,0,0,0,0c-0.3,0.3-0.7,0.5-1.1,0.5c-0.4,0-0.8-0.2-1.1-0.5c-0.6-0.6-0.6-1.6,0-2.2
	c0.3-0.3,0.7-0.5,1.1-0.4C58.2,152.1,58.6,152.3,58.9,152.6z"/>
<path d="M68.7,144h-4.8v3.2c0.6-0.3,1.3-0.5,1.9-0.5c0.7,0,1.3,0.2,1.9,0.5c0.6,0.3,1,0.8,1.3,1.4c0.3,0.7,0.5,1.4,0.5,2.2
	c0,0.8-0.2,1.6-0.6,2.3c-0.4,0.7-1,1.2-1.7,1.6c-0.8,0.4-1.6,0.6-2.5,0.6c-0.8,0-1.5-0.1-2.2-0.5c-0.7-0.3-1.3-0.8-1.8-1.3l1.4-1.3
	c0.6,0.8,1.6,1.2,2.6,1.2c0.6,0,1.3-0.2,1.7-0.7c0.4-0.5,0.7-1.2,0.6-1.9c0-1.6-0.7-2.4-2.1-2.4c-0.3,0-0.6,0-0.8,0.1
	c-0.3,0.1-0.6,0.2-0.8,0.3h-1.7v-6.7h7.4L68.7,144z"/>
<path d="M57.8,106.2H53v3.2c0.6-0.3,1.3-0.5,1.9-0.5c0.7,0,1.3,0.2,1.9,0.5c0.6,0.3,1,0.8,1.3,1.4c0.3,0.7,0.5,1.4,0.5,2.2
	c0,0.8-0.2,1.6-0.6,2.3c-0.4,0.7-1,1.2-1.7,1.6c-0.8,0.4-1.6,0.6-2.5,0.6c-0.8,0-1.5-0.1-2.2-0.5c-0.7-0.3-1.3-0.8-1.8-1.3l1.4-1.3
	c0.6,0.8,1.6,1.2,2.6,1.2c0.6,0,1.3-0.2,1.7-0.7c0.4-0.5,0.7-1.2,0.6-1.9c0-1.6-0.7-2.4-2-2.4c-0.3,0-0.6,0-0.8,0.1
	c-0.3,0.1-0.6,0.2-0.8,0.3h-1.7v-6.7h7.4L57.8,106.2z"/>
<path d="M68.2,105.9c1.6,3.1,1.6,6.8,0,9.9c-1.4,1.9-4,2.3-5.9,0.9c-0.3-0.3-0.6-0.6-0.9-0.9c-1.6-3.1-1.6-6.8,0-9.9
	c1.4-1.9,4.1-2.3,6-0.9C67.6,105.3,67.9,105.5,68.2,105.9z M63.2,107.1c-0.4,1.2-0.6,2.4-0.5,3.7c-0.1,1.3,0.1,2.5,0.5,3.7
	c0.3,0.9,1.3,1.3,2.2,1c0.5-0.2,0.8-0.5,1-1c0.4-1.2,0.6-2.5,0.5-3.7c0.1-1.3-0.1-2.5-0.5-3.7c-0.3-0.9-1.3-1.3-2.2-1
	C63.7,106.3,63.3,106.6,63.2,107.1L63.2,107.1z"/>
<path d="M44.6,68.4h-4.8v3.2c0.6-0.3,1.3-0.5,1.9-0.5c0.7,0,1.3,0.2,1.9,0.5c0.6,0.3,1,0.8,1.3,1.4c0.3,0.7,0.5,1.4,0.5,2.2
	c0,0.8-0.2,1.6-0.6,2.3c-0.4,0.7-1,1.2-1.7,1.6c-0.8,0.4-1.6,0.6-2.5,0.6c-0.8,0-1.5-0.1-2.2-0.5c-0.7-0.3-1.3-0.8-1.8-1.3l1.4-1.3
	c0.6,0.8,1.6,1.2,2.6,1.2c0.6,0,1.3-0.2,1.7-0.7c0.4-0.5,0.7-1.2,0.6-1.9c0-1.6-0.7-2.4-2-2.4c-0.3,0-0.6,0-0.8,0.1
	c-0.3,0.1-0.6,0.2-0.8,0.3h-1.7v-6.7h7.4L44.6,68.4z"/>
<path d="M52.6,66.8c1.2,0.6,2,1.8,1.9,3.2c0,0.7-0.2,1.4-0.5,2c-0.4,0.8-0.9,1.6-1.5,2.2c-0.7,0.8-1.8,1.9-3.2,3.2h5.5l-0.3,1.9h-8
	v-1.7c1.6-1.6,2.8-2.9,3.5-3.7c0.6-0.6,1.1-1.3,1.5-2c0.3-0.5,0.5-1.2,0.5-1.8c0.1-0.9-0.6-1.8-1.6-1.9c-0.1,0-0.2,0-0.3,0
	c-0.5,0-0.9,0.1-1.3,0.3c-0.4,0.3-0.8,0.6-1.2,1l-1.5-1.2c1-1.3,2.5-2.1,4.1-2.1C51.1,66.3,51.9,66.5,52.6,66.8z"/>
<path d="M58.9,77c0.6,0.6,0.6,1.6,0,2.2c0,0,0,0,0,0c-0.3,0.3-0.7,0.5-1.1,0.5c-0.4,0-0.8-0.2-1.1-0.5c-0.6-0.6-0.6-1.6,0-2.2
	c0.3-0.3,0.7-0.5,1.1-0.4C58.2,76.5,58.6,76.7,58.9,77z"/>
<path d="M68.7,68.4h-4.8v3.2c0.6-0.3,1.3-0.5,1.9-0.5c0.7,0,1.3,0.2,1.9,0.5c0.6,0.3,1,0.8,1.3,1.4c0.3,0.7,0.5,1.4,0.5,2.2
	c0,0.8-0.2,1.6-0.6,2.3c-0.4,0.7-1,1.2-1.7,1.6c-0.8,0.4-1.6,0.6-2.5,0.6c-0.8,0-1.5-0.1-2.2-0.5c-0.7-0.3-1.3-0.8-1.8-1.3l1.4-1.3
	c0.6,0.8,1.6,1.2,2.6,1.2c0.6,0,1.3-0.2,1.7-0.7c0.4-0.5,0.7-1.2,0.6-1.9c0-1.6-0.7-2.4-2.1-2.4c-0.3,0-0.6,0-0.8,0.1
	c-0.3,0.1-0.6,0.2-0.8,0.3h-1.7v-6.7h7.4L68.7,68.4z"/>
<path d="M58.9,30.6h-4.8v3.2c0.6-0.3,1.2-0.5,1.9-0.5c0.7,0,1.3,0.2,1.9,0.5c0.6,0.3,1,0.8,1.3,1.4c0.3,0.7,0.5,1.4,0.5,2.2
	c0,0.8-0.2,1.6-0.6,2.3c-0.4,0.7-1,1.2-1.7,1.6c-0.8,0.4-1.6,0.6-2.5,0.6c-0.8,0-1.5-0.1-2.2-0.5c-0.7-0.3-1.3-0.8-1.8-1.3l1.4-1.3
	c0.6,0.8,1.6,1.2,2.6,1.2c0.6,0,1.3-0.2,1.7-0.7c0.4-0.5,0.7-1.2,0.6-1.9c0-1.6-0.7-2.4-2-2.4c-0.3,0-0.6,0-0.8,0.1
	c-0.3,0.1-0.6,0.2-0.8,0.3h-1.7v-6.7h7.4L58.9,30.6z"/>
<path d="M68.7,30.6h-4.8v3.2c0.6-0.3,1.3-0.5,1.9-0.5c0.7,0,1.3,0.2,1.9,0.5c0.6,0.3,1,0.8,1.3,1.4c0.3,0.7,0.5,1.4,0.5,2.2
	c0,0.8-0.2,1.6-0.6,2.3c-0.4,0.7-1,1.2-1.7,1.6c-0.8,0.4-1.6,0.6-2.5,0.6c-0.8,0-1.5-0.1-2.2-0.5c-0.7-0.3-1.3-0.8-1.8-1.3l1.4-1.3
	c0.6,0.8,1.6,1.2,2.6,1.2c0.6,0,1.3-0.2,1.7-0.7c0.4-0.5,0.7-1.2,0.6-1.9c0-1.6-0.7-2.4-2.1-2.4c-0.3,0-0.6,0-0.8,0.1
	c-0.3,0.1-0.6,0.2-0.8,0.3h-1.7v-6.7h7.4L68.7,30.6z"/>
<line class="st3" x1="77.4" y1="190.2" x2="456.2" y2="190.2"/>
<line class="st2" x1="77.4" y1="205.6" x2="456.2" y2="205.6"/>
<line class="st3" x1="77.4" y1="152.1" x2="456.2" y2="152.1"/>
<line class="st3" x1="77.4" y1="114" x2="456.2" y2="114"/>
<line class="st3" x1="77.4" y1="75.9" x2="456.2" y2="75.9"/>
<line class="st3" x1="77.4" y1="37.8" x2="456.2" y2="37.8"/>
<line class="st3" x1="172" y1="205.6" x2="172" y2="15.5"/>
<line class="st3" x1="266.6" y1="205.6" x2="266.6" y2="15.5"/>
<line class="st3" x1="361.3" y1="205.6" x2="361.3" y2="15.5"/>
<line class="st3" x1="455.9" y1="205.6" x2="455.9" y2="15.5"/>
<path d="M129,218.1l-2.9,15.9h-4l-2.4-12.7l-2.4,12.7h-3.8l-2.9-15.9h3l2,13.5l2.6-13.5h3.2l2.6,13.5l2.2-13.5L129,218.1z"/>
<path d="M137.1,218.5V234h-2.9v-12.5l-3.4,2.1l-1.3-2l5-3.1L137.1,218.5z"/>
<path d="M222.8,218.1l-2.9,15.9h-4l-2.4-12.7L211,234h-3.8l-2.9-15.9h3l2,13.5l2.6-13.5h3.2l2.6,13.5l2.2-13.5L222.8,218.1z"/>
<path d="M231.2,218.8c1.4,0.7,2.4,2.2,2.3,3.8c0,0.9-0.2,1.7-0.6,2.5c-0.5,1-1.1,1.9-1.9,2.7c-0.9,1-2.2,2.3-3.8,3.9h6.6l-0.3,2.3
	h-9.6v-2.2c2-2,3.4-3.5,4.2-4.4c0.7-0.7,1.3-1.6,1.8-2.5c0.4-0.7,0.5-1.4,0.5-2.1c0.1-1.1-0.8-2.2-1.9-2.2c-0.1,0-0.2,0-0.3,0
	c-0.6,0-1.1,0.1-1.6,0.4c-0.5,0.3-1,0.8-1.4,1.2l-1.8-1.4c1.2-1.6,3-2.6,5-2.5C229.4,218.2,230.3,218.4,231.2,218.8z"/>
<path d="M317.3,218.1l-2.9,15.9h-4l-2.4-12.7l-2.4,12.7h-3.8l-2.9-15.9h3l2,13.5l2.6-13.5h3.2l2.5,13.5l2.2-13.5L317.3,218.1z"/>
<path d="M325.7,218.8c0.7,0.3,1.3,0.8,1.7,1.4c0.4,0.6,0.6,1.3,0.6,2c0,0.8-0.3,1.7-0.8,2.3c-0.6,0.7-1.4,1.1-2.2,1.3
	c0.9,0.1,1.8,0.4,2.5,1.1c0.7,0.7,1.1,1.7,1,2.7c0,0.9-0.2,1.7-0.7,2.4c-0.5,0.7-1.1,1.3-1.9,1.7c-0.9,0.4-2,0.7-3,0.6
	c-1.9,0.1-3.8-0.7-5-2.2l1.6-1.6c0.4,0.5,1,0.8,1.5,1.1c0.5,0.2,1.1,0.4,1.7,0.4c0.7,0,1.5-0.2,2-0.7c0.5-0.5,0.8-1.2,0.8-1.9
	c0.1-0.7-0.2-1.4-0.7-1.9c-0.6-0.4-1.3-0.6-2.1-0.6h-1.2l0.3-2.1h0.8c0.7,0,1.3-0.2,1.8-0.6c0.5-0.4,0.7-1.1,0.7-1.7
	c0-0.6-0.2-1.1-0.6-1.5c-0.5-0.4-1.1-0.6-1.7-0.5c-0.6,0-1.1,0.1-1.6,0.3c-0.5,0.3-1,0.6-1.5,1l-1.5-1.6c1.3-1.3,3-2,4.9-2
	C324,218.2,324.9,218.4,325.7,218.8z"/>
<path d="M411.6,218.1l-2.9,15.9h-4l-2.4-12.7l-2.4,12.7H396l-2.9-15.9h3l2,13.5l2.6-13.5h3.3l2.5,13.5l2.2-13.5L411.6,218.1z"/>
<path d="M423.8,228.2v2.2H422v3.5h-2.9v-3.5h-6.6v-2l4.5-10.2l2.5,0.9l-4,9h3.5l0.3-3.9h2.6v3.9L423.8,228.2z"/>
<circle class="st4" cx="434.8" cy="120.5" r="3.5"/>
</svg>
